<?xml version="1.0" standalone="no"?>
<!DOCTYPE svg PUBLIC "-//W3C//DTD SVG 20010904//EN"
 "http://www.w3.org/TR/2001/REC-SVG-20010904/DTD/svg10.dtd">
<svg version="1.0" xmlns="http://www.w3.org/2000/svg"
 width="1280.000000pt" height="1280.000000pt" viewBox="0 0 1280.000000 1280.000000"
 preserveAspectRatio="xMidYMid meet">
<metadata>
Created by potrace 1.15, written by Peter Selinger 2001-2017
</metadata>
<g transform="translate(0.000000,1280.000000) scale(0.100000,-0.100000)"
fill="#000000" stroke="none">
<path d="M5930 11634 c-19 -2 -91 -9 -160 -14 -527 -46 -1087 -188 -1605 -407
-225 -96 -714 -352 -715 -375 0 -3 13 -9 30 -13 16 -4 30 -11 30 -16 0 -12
-57 -11 -81 1 -15 9 -39 -3 -136 -68 -156 -105 -330 -235 -483 -362 -144 -120
-512 -479 -507 -494 2 -6 16 -11 30 -11 24 1 27 -3 28 -35 1 -19 1 -42 0 -50
-1 -8 34 23 79 69 44 46 80 86 80 87 0 2 -8 3 -17 2 -10 -1 -36 0 -58 0 -63 3
-26 26 45 28 l59 1 146 134 c81 74 153 138 160 142 11 6 12 14 5 32 -9 25 2
36 15 15 10 -17 21 -12 82 38 83 70 242 188 361 270 89 61 101 72 80 76 -12 3
-43 10 -68 15 -37 7 -40 9 -15 10 37 2 60 15 51 30 -11 17 4 13 49 -14 l42
-24 134 80 c354 214 841 423 1249 538 933 263 1948 264 2870 5 414 -117 870
-309 1224 -518 85 -50 132 -72 137 -65 4 7 13 1 25 -15 11 -15 66 -59 124 -98
141 -95 320 -230 460 -347 150 -124 519 -494 646 -646 276 -333 513 -697 691
-1060 37 -77 73 -144 79 -150 17 -16 189 -487 242 -665 210 -698 273 -1453
182 -2171 -11 -87 -25 -181 -30 -209 -12 -62 0 -85 37 -75 21 5 23 2 23 -34 0
-22 3 -47 6 -56 11 -28 -28 2 -57 43 l-24 36 -13 -74 c-12 -65 -12 -78 3 -118
16 -41 16 -45 -1 -78 -10 -19 -21 -34 -24 -34 -3 0 -4 24 -2 52 2 43 -6 23
-37 -97 -111 -424 -279 -857 -463 -1193 l-57 -103 17 -35 c12 -25 21 -34 34
-31 10 3 18 4 18 4 0 -1 -7 -26 -14 -54 -8 -29 -13 -53 -11 -53 2 0 27 41 56
91 40 71 49 93 38 99 -10 7 -6 12 13 20 20 9 44 49 101 169 112 231 235 526
225 537 -3 2 -22 -7 -42 -21 -20 -14 -39 -25 -41 -25 -11 0 -4 57 8 74 7 9 32
20 55 23 23 3 42 8 42 10 0 2 -12 25 -26 51 l-26 47 25 -27 c14 -15 27 -33 30
-40 2 -7 6 -11 9 -8 12 13 94 297 138 475 46 187 103 475 93 475 -2 0 -17 -7
-33 -15 -40 -21 -38 -12 8 33 l38 38 17 159 c64 602 32 1190 -94 1769 -58 267
-210 753 -231 740 -5 -3 -24 8 -44 25 l-35 31 31 0 c16 0 30 4 30 9 0 27 -50
121 -81 152 -28 28 -44 60 -69 134 l-32 97 -24 -28 c-29 -36 -32 -14 -4 40
l19 38 -36 72 c-94 187 -246 436 -392 643 l-86 121 -14 -29 c-16 -33 -34 -33
-39 -2 -2 13 5 27 17 35 20 14 18 18 -70 129 -578 721 -1351 1294 -2214 1641
-200 80 -567 198 -617 198 -13 0 -28 4 -34 9 -11 12 -289 73 -449 100 -329 55
-549 71 -924 69 -163 0 -312 -3 -331 -4z m2077 -310 c19 -18 22 -24 10 -20
-10 3 -23 6 -27 6 -5 0 -14 9 -20 20 -15 28 3 25 37 -6z m-3517 -34 c-9 -18
-125 -120 -135 -120 -3 0 7 16 20 36 27 40 31 54 15 54 -41 0 44 40 103 49 4
0 3 -8 -3 -19z m-440 -220 c0 -5 -13 -16 -30 -25 -35 -18 -40 -5 -8 24 20 20
38 20 38 1z m7257 -3022 c26 -25 29 -38 8 -38 -8 0 -21 14 -30 30 -18 35 -10
38 22 8z m51 -160 l-3 -23 -13 23 c-11 19 -11 26 0 39 12 15 13 15 16 0 2 -9
2 -27 0 -39z m110 -451 c5 -24 -15 -21 -21 4 -3 13 -1 19 6 16 7 -2 13 -11 15
-20z m-48 -2637 c0 -16 -4 -30 -9 -30 -12 0 -24 37 -16 50 12 20 25 10 25 -20z"/>
<path d="M5970 11403 c-147 -10 -169 -14 -163 -30 5 -13 2 -15 -13 -8 -10 4
-29 10 -42 13 -28 6 -234 -17 -252 -28 -20 -12 -4 -38 36 -62 32 -19 35 -23
18 -29 -38 -15 -83 -9 -104 13 -11 12 -20 24 -20 27 0 3 -4 12 -9 20 -7 11
-20 7 -63 -24 l-53 -39 34 37 c19 20 29 37 22 37 -7 0 -83 -15 -169 -34 -446
-98 -838 -237 -1241 -441 -204 -103 -464 -256 -462 -271 1 -5 25 -17 53 -26
59 -21 67 -26 92 -68 l18 -32 -58 40 c-33 22 -76 48 -96 58 l-37 17 -73 -48
c-277 -182 -757 -591 -750 -638 1 -13 -2 -17 -12 -14 -37 14 -46 -49 -22 -143
8 -30 13 -56 12 -58 -9 -8 -61 47 -76 80 l-17 39 -93 -102 c-160 -179 -460
-570 -460 -600 0 -4 7 -24 16 -42 15 -32 15 -36 -1 -61 -21 -32 -28 -33 -45
-1 -7 14 -16 25 -20 25 -11 0 -153 -245 -239 -411 -212 -409 -386 -915 -475
-1374 -30 -156 -60 -379 -77 -570 -16 -180 -16 -649 0 -830 96 -1101 495
-2068 1205 -2920 129 -155 467 -493 621 -621 1146 -951 2567 -1360 4041 -1163
l80 11 31 46 c16 26 38 68 48 94 10 26 21 45 26 42 5 -3 9 -41 9 -84 l0 -79
33 5 c69 12 346 75 417 94 l75 21 35 66 c19 37 36 70 38 73 1 4 -27 10 -63 14
-35 4 -72 9 -82 13 -15 6 -15 7 3 14 30 12 124 10 178 -4 50 -13 53 -17 80
-99 5 -16 16 -14 118 23 517 185 1038 473 1457 807 l95 75 -33 28 c-20 16 -28
29 -22 33 16 10 13 50 -6 91 -23 49 -38 44 -165 -55 -550 -429 -1153 -729
-1810 -901 -68 -18 -125 -34 -128 -37 -3 -2 8 -15 24 -29 21 -18 38 -24 58
-21 18 3 27 1 24 -6 -29 -73 -60 -136 -67 -136 -12 0 -60 85 -74 133 -12 39
-15 42 -46 41 -19 -1 -95 -13 -170 -27 -293 -56 -473 -71 -859 -71 -225 -1
-401 4 -480 12 -301 31 -659 99 -890 168 -69 20 -140 36 -159 35 -22 -1 -42 5
-55 18 -12 10 -68 36 -126 56 -306 109 -685 296 -965 476 -78 50 -90 56 -93
39 -2 -11 -15 -21 -33 -25 -41 -9 -44 -3 -13 30 l27 29 -24 16 c-84 55 -354
265 -459 357 -823 720 -1378 1670 -1600 2738 -144 696 -129 1487 41 2180 37
147 118 409 172 553 30 78 52 142 49 142 -3 0 -17 -10 -31 -22 -21 -18 -22
-19 -10 -3 25 31 59 102 59 124 0 12 8 21 19 23 14 2 47 59 119 203 161 321
322 578 538 854 62 79 92 126 85 130 -13 8 -33 71 -23 71 3 0 18 -11 32 -25
l26 -25 110 121 c648 721 1555 1261 2494 1483 148 36 141 33 134 51 -4 9 -19
15 -38 16 -17 1 -42 5 -56 9 -25 8 -24 8 5 9 43 2 107 21 126 38 15 12 19 11
39 -14 l22 -28 -49 -11 c-44 -10 -46 -12 -21 -18 16 -5 85 3 175 18 153 27
345 50 517 62 l98 7 -4 53 c-3 30 -3 54 -1 54 2 0 14 -24 26 -52 l23 -53 186
-1 186 -1 -19 31 c-14 23 -19 50 -19 109 l0 77 -137 0 -138 -1 30 -25 c20 -17
39 -24 58 -21 l27 4 0 -70 0 -70 -26 24 c-15 13 -47 54 -71 92 l-44 67 -62 -2
c-34 -1 -82 -3 -107 -5z m-2205 -792 c3 -5 1 -12 -4 -16 -14 -8 -62 5 -55 16
7 12 51 12 59 0z m-1337 -1193 c19 -19 14 -27 -23 -34 -44 -8 -54 0 -30 26 21
23 36 25 53 8z m-547 -678 c29 -16 23 -28 -16 -36 -44 -8 -54 0 -30 26 21 23
20 23 46 10z m-158 -229 c-7 -27 26 -43 66 -31 37 10 38 6 10 -39 -17 -29 -24
-32 -52 -29 -18 3 -40 8 -49 13 -16 6 -18 0 -18 -56 0 -45 -3 -59 -10 -49 -15
24 0 151 22 183 22 31 38 36 31 8z m-239 -428 c-26 -19 -29 -9 -7 27 17 30 18
30 21 9 2 -14 -3 -28 -14 -36z m1007 -5086 c-1 -4 -1 -16 -1 -27 0 -11 -4 -20
-10 -20 -5 0 -10 14 -10 31 0 17 5 29 11 27 6 -2 10 -7 10 -11z m6014 -1284
c8 -34 1 -38 -35 -23 -25 10 -30 18 -30 45 0 17 3 35 7 38 10 11 50 -32 58
-60z m-4072 -189 c33 -12 42 -12 67 1 l30 16 0 -38 c0 -51 -10 -83 -25 -83
-20 0 -88 54 -119 95 -24 31 -26 37 -10 30 10 -4 36 -14 57 -21z m2257 -313
c0 -5 -7 -14 -16 -22 -13 -10 -17 -10 -24 1 -6 9 -4 17 3 22 16 10 37 10 37
-1z"/>
<path d="M6530 11400 c0 -5 5 -12 10 -15 17 -11 11 -23 -12 -27 -29 -4 -34
-37 -18 -112 l11 -54 92 -7 c51 -3 150 -13 220 -21 71 -8 131 -14 133 -14 2 0
-7 23 -21 50 -14 28 -24 50 -21 50 2 0 31 -18 64 -41 87 -57 168 -88 322 -121
625 -133 1200 -376 1729 -730 86 -58 100 -64 82 -40 -11 17 -21 36 -21 42 0
20 23 90 29 90 4 0 11 -22 18 -49 29 -124 43 -141 222 -286 290 -233 536 -475
744 -732 l91 -113 28 33 28 32 -19 -44 -19 -43 70 -97 c38 -53 75 -97 82 -99
7 -1 22 1 35 6 23 8 23 8 -13 51 -20 24 -36 45 -36 47 0 12 61 -30 89 -61 37
-43 38 -59 6 -106 l-24 -37 53 -83 c198 -314 385 -710 503 -1072 26 -78 50
-144 53 -147 4 -3 13 -30 20 -60 14 -62 23 -81 47 -105 16 -16 16 -18 0 -27
-17 -9 -15 -49 4 -73 4 -6 8 -20 7 -30 -1 -11 9 -67 20 -125 159 -773 124
-1613 -98 -2374 -16 -57 -30 -110 -30 -116 0 -13 56 -10 95 6 17 7 16 2 -9
-32 -16 -21 -31 -41 -33 -43 -2 -3 -17 8 -33 24 -22 21 -31 25 -34 14 -3 -8
-24 -68 -47 -134 -140 -401 -381 -862 -640 -1222 -33 -44 -59 -86 -59 -91 0
-6 -8 -17 -18 -24 -9 -7 -67 -73 -127 -147 -60 -73 -160 -186 -221 -250 -91
-95 -110 -120 -103 -134 7 -11 6 -17 0 -17 -5 0 -11 6 -14 13 -3 7 -25 -7 -57
-39 l-52 -51 34 -23 c18 -13 57 -44 86 -68 l54 -45 60 59 c143 140 288 305
288 328 0 18 5 23 18 20 21 -4 84 67 64 74 -20 6 -14 35 17 83 28 44 91 110
91 95 0 -4 -7 -20 -15 -36 -21 -40 -36 -80 -30 -80 10 0 204 267 287 395 104
159 219 357 299 517 l60 119 -22 18 c-20 16 -21 22 -13 52 l10 34 15 -44 15
-45 48 110 c57 129 149 370 166 434 6 25 20 68 30 95 84 231 218 893 185 920
-15 12 -27 45 -17 45 5 0 13 -5 19 -11 14 -14 20 20 34 219 15 208 6 715 -15
912 -25 225 -73 497 -127 707 -57 226 -158 541 -168 524 -4 -7 -17 20 -28 61
-36 130 -81 239 -187 453 -258 522 -559 940 -980 1361 -330 328 -625 559
-1016 794 -220 132 -626 327 -800 385 -30 10 -73 26 -95 36 -138 61 -605 183
-877 229 -232 39 -618 76 -618 60z m4654 -3655 l6 -30 -20 24 c-20 23 -26 52
-13 65 8 7 16 -11 27 -59z m51 -342 c61 -75 85 -118 85 -152 0 -33 0 -34 -20
-16 -23 21 -46 14 -62 -20 -15 -34 -25 -31 -37 10 -13 48 -5 69 34 91 l34 19
-40 53 c-45 59 -40 72 6 15z m45 -234 c9 -16 8 -24 -4 -38 -11 -12 -16 -37
-16 -77 l-1 -59 -20 25 c-14 16 -19 33 -16 50 21 107 22 102 -7 94 -32 -8 -34
3 -3 16 36 14 56 11 67 -11z m110 -215 c0 -23 -5 -34 -14 -34 -8 0 -22 -3 -31
-7 -14 -5 -16 -2 -10 18 11 37 35 70 45 64 6 -4 10 -22 10 -41z m-65 -1243
c-15 -22 -40 -78 -56 -123 l-28 -83 -1 103 0 102 53 24 c28 13 53 22 55 20 2
-1 -9 -21 -23 -43z m-225 -1286 c0 -39 -15 -47 -23 -13 -5 19 7 48 19 48 2 0
4 -16 4 -35z m-1005 -1541 c-8 -20 -15 -38 -15 -40 0 -2 -4 -4 -10 -4 -11 0
-14 63 -3 73 3 4 15 7 25 7 17 0 17 -2 3 -36z"/>
<path d="M2234 9818 c-58 -63 -58 -62 -39 -118 22 -67 45 -67 103 -1 23 28 42
53 42 58 0 4 -17 27 -38 51 l-37 43 -31 -33z"/>
<path d="M2122 9690 c-10 -17 -10 -20 3 -20 8 0 15 2 15 4 0 2 3 11 6 20 9 23
-9 20 -24 -4z"/>
<path d="M2168 9614 c-28 -14 -48 -20 -48 -13 0 8 -4 8 -15 -1 -8 -7 -15 -19
-15 -26 0 -21 -16 -17 -27 8 -9 20 -14 16 -70 -57 l-61 -78 26 -54 27 -54 22
25 c12 14 26 26 31 26 14 0 36 29 28 37 -3 4 -13 -2 -20 -13 -13 -17 -15 -18
-21 -2 -10 26 4 40 35 36 27 -2 57 29 173 180 15 20 -13 14 -65 -14z"/>
<path d="M5988 9510 c-42 -4 -132 -16 -199 -26 l-121 -17 38 -21 c36 -18 37
-20 16 -25 l-24 -6 26 -24 c14 -14 26 -29 26 -34 0 -13 -49 1 -81 24 -34 24
-40 24 -73 -2 -29 -23 -34 -12 -16 37 6 15 9 28 7 30 -5 6 -162 -36 -188 -51
-14 -8 -29 -12 -32 -9 -7 7 -165 -44 -302 -98 -137 -54 -338 -154 -470 -233
-119 -72 -335 -223 -335 -235 0 -14 30 -33 62 -39 l32 -7 -51 -37 c-28 -20
-54 -37 -57 -37 -4 0 -15 18 -25 40 l-18 41 -94 -84 c-52 -47 -116 -108 -144
-137 l-50 -51 30 -26 30 -25 -30 5 c-16 3 -37 8 -46 12 -25 9 -215 -219 -346
-415 -124 -186 -254 -437 -331 -637 l-40 -103 28 0 c22 0 30 -6 39 -31 19 -54
14 -61 -25 -34 -20 14 -41 25 -45 25 -23 0 -107 -334 -139 -550 -20 -139 -35
-315 -24 -292 3 6 12 12 20 12 11 0 14 16 15 68 l0 67 22 -66 c24 -70 51 -119
67 -119 6 0 10 24 10 53 0 28 3 76 7 106 5 43 3 52 -7 46 -9 -6 -8 1 3 21 8
16 23 78 32 138 10 60 32 167 49 238 26 101 30 128 19 128 -22 0 -11 34 15 45
12 5 22 15 22 22 0 7 20 67 45 133 25 67 43 126 40 131 -4 5 -2 9 3 9 5 0 45
73 90 163 106 214 218 391 353 561 26 32 45 65 42 72 -3 8 0 14 7 14 7 0 83
71 169 158 86 87 206 197 266 246 239 191 540 369 806 475 l57 22 -5 42 -5 42
29 -32 28 -33 105 34 c58 18 131 39 162 46 l57 13 -66 34 c-50 25 -69 30 -75
20 -5 -8 -8 -9 -8 0 0 31 11 38 51 35 26 -3 44 0 49 8 6 9 17 -4 34 -38 15
-29 29 -52 31 -52 3 0 45 9 93 19 217 48 313 56 637 56 267 -1 329 -4 445 -22
208 -33 359 -69 547 -132 169 -56 172 -56 196 -39 25 18 100 48 121 48 6 0 -6
-11 -25 -25 -33 -22 -49 -43 -49 -64 0 -4 37 -25 83 -46 206 -96 468 -258 647
-402 186 -149 430 -404 569 -595 61 -85 80 -105 67 -73 -6 16 18 20 48 9 15
-6 14 -10 -3 -38 l-20 -32 32 -49 c17 -28 34 -52 37 -55 8 -8 77 -137 122
-227 45 -92 57 -99 117 -62 18 11 35 18 37 16 3 -2 -15 -28 -39 -57 l-43 -53
39 -96 c129 -320 205 -716 210 -1087 l2 -173 29 2 c25 2 33 -4 53 -38 30 -53
29 -56 -9 -41 -79 32 -74 35 -82 -56 -18 -220 -68 -483 -127 -666 -12 -34 -18
-69 -16 -77 3 -7 0 -15 -7 -18 -6 -3 -17 -22 -23 -42 -10 -32 -9 -41 7 -64 34
-47 35 -76 4 -100 -24 -19 -29 -20 -36 -6 -5 8 -14 15 -21 15 -7 0 -41 -62
-77 -138 -122 -258 -282 -501 -471 -718 -91 -105 -94 -113 -36 -114 12 -1 39
-7 60 -14 l37 -14 62 72 c91 105 221 282 299 409 127 205 273 511 263 552 -4
14 3 32 19 51 34 40 66 142 48 154 -9 5 -12 21 -9 44 3 31 1 37 -18 42 -36 9
-19 37 17 29 34 -8 37 4 9 30 -18 16 -20 16 -26 1 -6 -17 -44 -23 -44 -7 0 21
53 70 104 97 l55 28 20 111 c35 185 51 369 51 591 0 308 -26 527 -96 808 -38
153 -42 164 -55 145 -6 -9 -9 2 -9 32 0 64 -42 184 -64 183 -14 -2 -16 4 -11
27 5 22 -6 57 -45 146 -59 133 -150 306 -157 299 -7 -7 -63 15 -63 25 0 5 4 9
9 9 34 0 6 81 -37 107 -11 6 -22 24 -25 40 -9 38 -100 159 -126 166 -19 5 -21
1 -22 -36 0 -23 -5 -51 -10 -62 -6 -13 -8 10 -4 70 l5 91 -62 74 -62 73 -16
-49 c-12 -36 -22 -50 -38 -52 -15 -2 -22 2 -22 12 0 10 -6 13 -15 10 -10 -4
-15 0 -13 12 4 47 -5 67 -49 113 -27 26 -57 53 -68 59 -19 10 -19 11 -1 31 11
12 31 21 45 21 24 1 20 6 -39 61 -167 154 -437 351 -622 453 -66 37 -67 37
-94 19 l-27 -17 7 27 c7 28 4 29 -116 87 -282 134 -600 226 -950 275 -129 19
-596 28 -720 15z m2067 -531 c4 -6 5 -13 1 -16 -8 -8 -56 6 -56 17 0 13 47 13
55 -1z m223 -155 c28 -12 52 -25 52 -27 0 -2 -24 -2 -54 1 -33 3 -56 0 -60 -7
-11 -18 -23 -13 -30 13 -3 13 -9 32 -12 41 -5 13 -2 15 22 9 16 -3 53 -17 82
-30z m166 -219 c4 -11 -1 -15 -19 -15 -27 0 -42 16 -23 23 23 10 36 7 42 -8z
m-5026 -950 c22 -6 23 -8 7 -25 -20 -22 -72 -42 -80 -30 -3 4 -3 15 0 24 3 9
7 23 10 32 3 9 12 13 22 10 10 -2 28 -7 41 -11z m5386 -3370 c-20 -39 -25 -62
-22 -103 2 -28 2 -52 2 -52 -4 0 -79 32 -82 35 -9 8 45 95 81 132 22 24 42 41
44 40 1 -2 -9 -25 -23 -52z"/>
<path d="M5613 9445 c-3 -9 -3 -18 0 -21 9 -9 27 6 27 22 0 19 -19 18 -27 -1z"/>
<path d="M1798 9254 c-124 -186 -225 -358 -232 -399 -4 -20 -13 -35 -21 -35
-15 0 -163 -291 -238 -470 -514 -1219 -565 -2595 -143 -3835 503 -1480 1593
-2649 3043 -3263 l71 -30 10 61 9 62 27 -59 c19 -42 24 -62 16 -71 -19 -23
353 -148 670 -224 405 -97 733 -139 1165 -148 769 -16 1487 119 2189 412 224
93 469 218 494 252 16 21 21 24 22 11 0 -20 72 20 300 164 173 109 162 97 175
181 l12 72 22 -48 23 -48 26 17 c39 25 133 96 243 185 91 73 95 79 91 111 -2
18 1 57 6 86 5 29 7 52 5 52 -2 0 -43 -34 -91 -76 l-87 -76 -6 -59 c-3 -33 -9
-62 -13 -66 -4 -4 -27 3 -50 16 l-44 23 -94 -70 c-418 -310 -944 -581 -1460
-753 l-156 -52 -6 -38 c-7 -47 -17 -49 -48 -10 l-23 30 -70 -20 c-103 -29
-372 -85 -515 -109 -562 -91 -1219 -85 -1769 16 -159 29 -495 111 -629 153
-65 20 -89 25 -81 14 10 -12 10 -16 -2 -24 -18 -11 -49 -12 -49 0 0 5 -3 16
-6 25 -4 11 0 16 12 16 11 1 -39 22 -111 49 -773 287 -1407 697 -1970 1272
-466 476 -819 1002 -1083 1609 -204 472 -343 1012 -404 1575 -21 189 -17 870
5 1060 77 648 239 1213 507 1760 77 157 194 371 247 451 l17 26 -30 -4 c-24
-2 -30 1 -32 19 -2 12 2 32 8 44 10 18 18 21 56 16 41 -4 45 -2 65 29 17 28
18 37 8 56 -9 19 -9 21 2 11 19 -19 24 -17 53 27 l26 40 -33 0 c-43 0 -47 5
-34 40 7 19 8 36 1 50 -9 21 -18 11 -96 -106z m-572 -1216 c-3 -13 -6 -27 -6
-31 0 -5 -4 -5 -10 -2 -17 10 -12 55 6 55 12 0 15 -6 10 -22z m-56 -365 c0
-67 -3 -93 -10 -83 -5 8 -10 25 -10 38 0 13 -8 26 -19 30 -18 7 -18 8 3 59 11
29 24 53 29 53 4 0 7 -44 7 -97z m-120 -395 c0 -7 -3 -24 -7 -36 -4 -18 -8
-20 -14 -10 -14 22 -10 58 6 58 8 0 15 -6 15 -12z m7570 -5823 c10 -12 9 -15
-8 -15 -29 0 -53 11 -46 21 8 14 40 11 54 -6z"/>
<path d="M6100 9304 c-196 -16 -366 -41 -538 -81 l-112 -27 20 -21 c20 -22 20
-23 4 -59 -10 -20 -21 -36 -25 -36 -3 0 -9 17 -13 38 -10 63 -15 66 -79 47
-84 -24 -270 -97 -381 -149 -245 -115 -518 -295 -729 -482 -32 -29 -47 -49
-47 -66 0 -21 -4 -24 -23 -21 -15 3 -29 -3 -42 -18 l-20 -22 25 5 c14 3 33 9
43 13 25 11 21 -6 -12 -45 l-29 -35 -24 23 -25 23 -43 -47 c-46 -50 -43 -63
15 -65 26 -1 23 -3 -20 -16 -59 -18 -85 -38 -85 -67 0 -15 -3 -17 -12 -8 -18
18 -22 16 -71 -47 l-47 -59 69 -71 68 -72 12 56 c16 72 36 86 28 19 l-5 -49
19 24 c10 13 19 40 20 60 0 32 1 34 11 15 10 -21 11 -20 46 20 20 22 69 75
109 117 54 57 73 84 73 104 0 23 3 26 21 22 15 -4 19 -2 15 8 -3 8 -1 17 4 20
6 4 10 -1 10 -10 0 -10 26 7 73 47 441 385 1010 634 1574 690 l123 12 -19 20
c-48 53 -71 102 -65 135 l7 32 21 -21 c29 -26 45 -25 89 4 38 26 47 21 47 -29
0 -31 -22 -47 -75 -53 -25 -2 -45 -7 -45 -11 0 -3 13 -21 28 -40 l28 -33 130
1 c725 9 1422 -257 1967 -750 l78 -71 34 27 c41 30 45 23 10 -19 l-24 -30 66
-70 c76 -82 202 -238 253 -313 32 -48 38 -53 75 -53 22 0 58 -9 80 -19 37 -18
38 -19 13 -20 -33 -1 -78 -21 -78 -34 0 -14 54 -107 63 -107 4 0 7 7 7 15 0
19 10 19 38 -1 18 -13 21 -19 11 -30 -6 -8 -18 -14 -25 -14 -18 0 -18 -1 13
-64 15 -30 31 -52 36 -49 6 3 7 1 4 -5 -4 -5 7 -41 24 -79 106 -236 184 -506
222 -775 l12 -88 37 25 c44 30 44 30 51 5 8 -31 75 -51 106 -31 13 8 13 24 2
108 -16 126 -52 297 -93 441 -28 99 -34 112 -45 96 -12 -16 -13 -16 -19 1 -4
10 -2 26 4 36 9 14 7 30 -7 71 -41 118 -51 136 -72 131 -10 -3 -19 0 -19 6 0
6 7 11 15 11 8 0 15 2 15 4 0 2 -16 39 -36 82 -60 131 -137 264 -151 264 -8 0
-11 5 -8 10 4 6 -5 31 -20 56 -26 45 -27 45 -48 27 -21 -18 -21 -18 -4 6 15
23 14 26 -24 82 -45 67 -74 91 -41 35 13 -21 21 -41 18 -43 -3 -3 -23 10 -46
28 -38 32 -40 36 -35 74 5 36 1 46 -31 88 -20 26 -43 47 -50 47 -8 0 -31 -16
-53 -35 -43 -39 -51 -42 -51 -18 0 9 19 33 42 55 l42 38 -50 53 c-27 28 -50
54 -51 56 -4 7 -10 -2 -17 -25 -4 -14 -1 -28 8 -37 14 -14 12 -17 -17 -36 -31
-20 -32 -20 -35 -2 -2 11 8 42 22 69 l25 50 -97 89 c-130 119 -230 203 -243
203 -5 0 -27 -9 -49 -20 -32 -16 -44 -18 -70 -9 -28 10 -30 13 -16 28 22 24
20 32 -12 77 -16 21 -29 44 -30 49 -6 30 -364 219 -566 300 -119 47 -119 47
-149 30 l-30 -18 7 27 c5 19 3 26 -9 26 -24 0 -29 1 -40 10 -30 24 -328 89
-530 115 -112 15 -455 26 -555 19z m308 -108 c9 -20 8 -25 -4 -30 -23 -9 -24
-8 -24 24 0 36 13 39 28 6z m-650 -61 c26 -8 29 -20 5 -29 -11 -5 -26 2 -42
20 -28 28 -28 28 37 9z m136 -1 c9 -22 -3 -32 -14 -14 -12 19 -12 30 -1 30 5
0 12 -7 15 -16z m1658 -152 c-5 -64 -22 -101 -53 -117 -28 -15 -29 -15 -29 9
0 31 -20 47 -70 53 -45 6 -49 14 -20 43 27 27 50 25 98 -10 23 -16 44 -30 46
-30 2 0 7 23 11 51 8 57 21 58 17 1z m-3234 -578 c2 -1 -6 -16 -16 -33 -17
-27 -21 -30 -32 -16 -10 12 -10 21 0 45 11 26 15 28 29 18 9 -7 17 -13 19 -14z
m4357 -497 c-7 -27 -35 -46 -35 -24 0 15 30 60 37 54 2 -3 1 -16 -2 -30z m286
-363 c10 -13 10 -17 -1 -24 -11 -7 -11 -12 -2 -23 10 -12 9 -16 -4 -21 -20 -8
-54 2 -54 15 0 5 7 9 16 9 14 0 14 3 4 15 -10 12 -10 18 0 30 16 19 24 19 41
-1z m249 -473 c0 -11 -26 -22 -34 -14 -12 12 -5 23 14 23 11 0 20 -4 20 -9z"/>
<path d="M8080 8708 c0 -24 16 -39 34 -32 16 6 16 8 0 25 -20 22 -34 25 -34 7z"/>
<path d="M8631 8525 c10 -26 55 -95 62 -95 18 0 4 34 -29 68 -20 20 -35 33
-33 27z"/>
<path d="M6860 8273 c-90 -11 -296 -56 -402 -89 l-117 -37 34 -40 c47 -54 75
-115 75 -161 0 -50 -45 -155 -126 -296 -138 -238 -126 -209 -119 -307 7 -87 6
-88 -24 -129 -17 -23 -56 -61 -86 -84 l-55 -43 -193 22 c-356 39 -522 53 -582
47 -142 -14 -280 -129 -341 -284 -4 -9 -257 77 -344 118 -117 55 -188 74 -234
64 -98 -21 -168 -105 -98 -119 96 -20 109 -41 84 -135 -9 -36 -17 -67 -19 -69
-4 -6 -165 41 -203 60 -47 23 -91 99 -129 224 -37 119 -46 137 -61 115 -38
-58 -89 -432 -75 -555 20 -167 103 -311 152 -262 9 8 33 73 54 144 22 70 47
139 57 153 29 39 95 59 195 59 l88 1 -7 -105 c-4 -62 -3 -105 2 -105 6 0 19
15 29 33 l20 32 6 -60 c4 -33 10 -68 14 -77 10 -25 1 -22 -38 12 l-34 29 5
-82 c4 -81 7 -88 49 -113 14 -9 7 -10 -34 -6 -64 6 -114 -21 -143 -79 -26 -50
-26 -67 0 -44 31 28 24 5 -9 -30 -24 -25 -32 -48 -50 -145 -73 -400 -45 -813
80 -1175 53 -155 76 -205 93 -205 20 0 30 41 23 86 -7 40 3 43 51 14 44 -27
48 -44 24 -101 l-20 -49 81 -1 c75 -1 78 -2 42 -11 -22 -5 -73 -8 -113 -6 -39
2 -72 1 -72 -2 0 -15 134 -242 190 -322 74 -107 304 -341 397 -406 l62 -43 32
43 32 43 -7 -40 c-3 -22 -7 -48 -9 -59 -1 -14 22 -32 93 -72 52 -30 92 -54 88
-54 -4 0 -44 17 -90 37 -76 33 -90 36 -163 34 l-80 -2 33 20 c17 12 32 23 32
25 0 2 -39 25 -87 51 -115 61 -289 177 -416 277 -132 104 -360 335 -462 466
-44 57 -81 99 -83 93 -8 -23 -21 -9 -28 27 -3 20 -29 73 -57 117 -252 400
-401 861 -436 1350 l-8 110 -23 -53 c-22 -50 -24 -52 -41 -36 -22 20 -34 73
-25 110 4 14 27 47 51 73 33 35 45 56 45 79 0 27 -6 33 -57 56 -31 15 -54 28
-51 31 2 3 27 1 54 -4 27 -5 51 -8 52 -6 2 2 6 31 9 65 5 50 3 64 -10 71 -19
11 -15 45 5 41 12 -2 19 22 33 105 19 118 65 313 89 382 23 62 21 68 -25 83
l-41 14 54 17 54 17 33 82 c64 159 183 385 285 541 l18 27 -26 0 c-23 0 -25 3
-19 30 5 27 0 36 -41 75 -25 25 -50 45 -55 45 -18 0 -167 -243 -248 -404 -75
-148 -156 -353 -197 -495 -49 -168 -50 -178 -32 -206 18 -28 20 -39 6 -30 -12
7 -12 -2 0 -30 7 -17 9 -18 9 -2 1 16 3 16 26 1 15 -10 37 -14 55 -12 16 3 30
3 30 1 0 -12 -34 -83 -40 -83 -4 0 -21 15 -37 33 -35 39 -82 63 -88 44 -10
-31 -35 -214 -46 -330 -16 -178 -6 -534 19 -702 44 -285 126 -569 234 -810 56
-125 145 -295 155 -295 3 0 3 7 -1 15 -4 11 1 15 19 15 19 0 23 -4 18 -17 -3
-10 -10 -23 -15 -29 -5 -7 0 -26 13 -49 l22 -37 16 26 c9 14 19 26 23 26 11 0
62 -66 88 -113 l23 -42 -39 36 c-40 38 -74 59 -94 59 -20 0 178 -276 206 -287
8 -3 21 -20 30 -39 37 -78 447 -459 523 -485 17 -6 31 -16 31 -22 0 -14 147
-112 278 -187 87 -49 92 -51 114 -36 31 22 36 20 30 -10 -6 -31 -5 -31 113
-83 127 -56 204 -84 182 -67 -13 10 -16 21 -11 40 3 14 10 26 15 26 13 0 29
-36 29 -64 0 -23 8 -28 98 -55 169 -52 310 -84 510 -117 28 -4 33 -2 30 13 -2
13 4 19 25 21 23 3 27 0 27 -21 0 -23 4 -25 51 -29 35 -2 53 1 56 10 7 16 48
15 66 -2 9 -9 42 -16 90 -18 43 -1 77 -2 77 -1 0 1 -9 22 -19 47 l-20 45 26
-10 c14 -5 39 -19 54 -30 16 -11 29 -17 29 -13 0 12 -51 97 -73 122 -33 36 -1
26 65 -20 47 -33 58 -46 54 -62 -3 -12 -6 -32 -6 -45 0 -16 -4 -21 -15 -17 -8
3 -15 0 -15 -6 0 -16 209 -4 384 22 569 85 1120 341 1562 727 l85 74 -48 57
-48 57 40 -31 c81 -63 72 -65 178 46 94 97 95 99 87 135 -4 19 -25 56 -45 80
-27 34 -32 45 -20 45 10 0 25 11 36 24 21 27 62 30 67 4 4 -21 -24 -25 -31 -5
-3 9 -10 7 -25 -6 l-21 -19 34 -43 c18 -24 35 -50 37 -57 4 -10 8 -10 22 2 17
13 17 14 1 20 -14 5 -7 14 35 44 40 29 50 40 39 47 -20 12 -53 11 -67 -3 -8
-8 -12 -8 -12 -1 0 6 10 17 22 25 l22 15 -24 13 c-14 7 -30 20 -37 29 -6 9
-15 12 -20 7 -4 -5 -2 -11 5 -13 6 -3 12 -9 12 -15 0 -6 -6 -6 -15 2 -8 7 -15
9 -16 4 0 -5 -7 5 -14 21 l-13 30 -11 -28 c-6 -16 -11 -33 -11 -38 0 -5 -4 -9
-10 -9 -20 0 -10 84 15 125 26 43 33 103 13 123 -8 8 -8 12 -1 12 6 0 14 22
18 50 4 27 11 52 16 56 14 8 11 24 -5 24 -7 0 -25 9 -40 21 -14 11 -26 16 -26
10 0 -13 -10 -14 -30 -1 -12 7 -12 12 4 29 21 23 65 27 97 11 10 -6 19 -8 19
-4 0 16 -113 183 -121 178 -11 -7 -80 29 -100 52 -9 11 -18 28 -21 39 -4 16 0
20 16 20 12 0 22 5 23 10 1 6 -27 49 -62 98 l-65 88 -31 -17 c-26 -13 -36 -13
-60 -3 -27 11 -28 13 -14 29 22 24 19 52 -11 95 -17 26 -22 40 -14 45 7 5 6
11 -5 20 -12 10 -15 24 -11 49 17 124 18 151 1 151 -13 0 -13 4 4 28 12 16 21
51 24 88 l5 61 -53 19 c-44 14 -59 16 -80 6 -33 -15 -36 -15 -28 4 5 13 0 14
-31 8 -37 -6 -37 -6 -30 22 4 16 11 40 16 53 5 13 6 26 3 29 -3 3 -5 0 -5 -6
0 -7 -13 -12 -29 -12 l-29 0 -4 80 c-3 90 5 99 45 51 l25 -30 6 37 c7 47 -11
62 -73 62 l-46 0 41 19 c37 17 62 46 50 58 -2 3 -19 8 -38 12 -49 11 -95 -5
-113 -39 -20 -38 -20 -38 18 -43 17 -2 15 -3 -5 -1 -21 2 -56 7 -78 10 -24 4
-40 2 -40 -4 0 -6 13 -39 30 -74 16 -34 30 -55 30 -45 0 9 4 17 9 17 20 0 27
-177 8 -196 -2 -3 -20 -7 -40 -11 -31 -5 -36 -3 -39 18 -2 18 -10 25 -31 27
-22 3 -27 7 -22 22 5 14 -3 21 -37 33 -40 14 -41 15 -13 14 17 0 41 6 54 13
21 11 29 8 67 -19 l44 -31 0 36 c0 26 -10 47 -34 77 -34 42 -91 147 -81 147 4
0 15 -5 26 -10 16 -9 19 -7 19 15 0 14 9 34 21 46 27 27 9 54 -30 44 -25 -6
-25 -5 -9 11 13 14 20 15 31 5 9 -7 31 -9 58 -6 l44 6 -35 -20 c-36 -20 -36
-20 14 -35 13 -4 106 13 164 30 19 6 22 3 22 -25 0 -21 5 -31 15 -31 10 0 15
10 15 28 0 81 57 220 168 413 78 135 160 300 184 369 26 74 33 218 15 290 -14
51 -15 53 -17 20 -1 -19 -5 -44 -10 -55 -8 -18 -9 -17 -9 7 -1 37 -11 58 -27
58 -18 0 -18 0 5 53 l19 44 -26 44 c-30 52 -74 112 -114 155 -20 22 -29 43
-32 75 -4 63 -36 117 -103 180 -52 48 -165 119 -189 119 -5 0 -17 -14 -26 -30
-20 -35 -70 -44 -61 -11 5 20 -38 61 -66 61 -13 1 -13 3 3 15 22 16 23 15 -64
39 -212 58 -596 91 -790 69z m389 -188 c-7 -48 -6 -92 1 -139 16 -102 9 -99
-59 26 l-43 78 53 55 c29 30 53 54 55 52 2 -1 -1 -34 -7 -72z m-3431 -260
c-20 -70 -26 -80 -45 -79 -13 0 -51 1 -84 2 l-61 2 62 42 c35 23 81 66 104 95
50 65 56 51 24 -62z m3280 -78 c42 -43 43 -44 16 -39 -22 4 -26 2 -21 -12 5
-13 -1 -16 -33 -16 -27 0 -42 -5 -49 -17 -8 -16 -10 -15 -15 7 -2 14 -7 56
-11 93 l-6 68 38 -20 c21 -11 58 -39 81 -64z m761 24 c11 -7 9 -10 -8 -16 -25
-8 -36 -2 -26 14 8 13 15 14 34 2z m-1106 -39 c36 -34 47 -78 47 -185 l0 -89
55 30 c40 22 55 26 55 16 0 -8 5 -14 11 -14 6 0 9 7 5 15 -3 9 0 15 9 15 9 0
12 -6 9 -15 -4 -8 -1 -15 5 -15 6 0 11 -5 11 -11 0 -7 -9 -9 -22 -6 -13 4 -37
-3 -62 -18 -23 -13 -61 -31 -86 -40 l-44 -15 -43 42 -43 42 25 13 c33 18 32
28 -10 110 l-36 68 41 -45 41 -45 -7 35 c-3 19 -15 58 -25 85 -11 28 -19 54
-19 59 0 16 55 -5 83 -32z m458 -116 c10 -17 9 -17 -16 2 -15 12 -33 22 -39
22 -7 0 -21 7 -32 16 -18 14 -18 15 4 4 19 -9 22 -8 22 12 0 22 1 22 25 -7 14
-16 30 -39 36 -49z m1019 -39 c0 -28 -12 -67 -35 -116 -19 -40 -35 -75 -35
-77 0 -2 15 -4 33 -4 30 -1 31 -1 13 -15 -11 -8 -35 -15 -53 -15 -31 0 -33 2
-33 35 0 23 8 42 24 59 14 13 35 57 48 100 13 42 26 76 31 76 4 0 7 -19 7 -43z
m-766 1 c-21 -41 -44 -124 -44 -161 0 -47 -18 -21 -34 53 -9 38 -16 71 -16 74
0 4 100 65 108 66 1 0 -5 -15 -14 -32z m556 7 c8 -9 8 -15 2 -15 -18 0 -42 12
-42 21 0 14 26 10 40 -6z m-1470 -61 c12 -19 20 -37 18 -40 -10 -9 -58 38 -58
57 0 29 16 23 40 -17z m431 -113 c34 -34 37 -74 14 -161 -8 -30 -15 -57 -15
-58 0 -2 28 -1 63 2 56 6 60 5 43 -8 -19 -15 -100 -36 -139 -36 -14 0 -30 13
-44 35 -28 42 -29 55 -4 55 29 0 44 50 39 130 -2 38 0 70 5 70 5 0 22 -13 38
-29z m271 -56 c20 -27 46 -71 58 -98 l20 -50 -50 47 c-50 47 -76 56 -99 34
-11 -11 -12 -6 -7 27 19 113 21 115 78 40z m-454 -75 c6 -16 7 -30 3 -30 -13
0 -38 44 -34 58 7 18 19 6 31 -28z m495 -77 c2 -10 8 -26 12 -35 11 -28 -28
-23 -64 8 -37 30 -32 44 13 44 24 0 35 -5 39 -17z m-568 -20 c98 -49 142 -83
158 -123 14 -35 8 -56 -8 -30 -3 6 -19 10 -35 10 -33 0 -60 -31 -60 -67 0 -27
-11 -29 -32 -5 -31 34 -40 62 -27 78 7 8 7 14 1 14 -5 0 -12 -7 -16 -15 -8
-23 -35 -18 -45 8 -13 35 -24 134 -16 147 7 12 32 6 80 -17z m-3327 -55 c19
-19 14 -28 -13 -28 -18 0 -25 5 -25 20 0 22 20 26 38 8z m4912 4 c0 -5 -7 -17
-15 -28 -14 -19 -14 -19 -15 2 0 11 3 24 7 27 9 10 23 9 23 -1z m-2835 -57
c77 -8 217 -24 312 -37 l172 -22 -26 -43 c-16 -28 -23 -51 -19 -66 3 -13 34
-49 70 -80 36 -31 67 -66 71 -77 4 -12 -5 -41 -24 -77 -36 -67 -37 -73 -15
-115 l16 -31 -183 6 c-101 4 -296 10 -434 13 -137 4 -251 8 -253 9 -2 2 -4 36
-6 76 -3 91 -29 151 -91 218 -54 58 -53 62 24 144 92 99 137 108 386 82z
m2749 -3 c-1 -7 -2 -21 -2 -33 -3 -31 -22 -12 -22 22 0 20 4 29 13 27 6 -3 12
-10 11 -16z m-400 -10 c-1 -7 -2 -21 -2 -33 -3 -31 -22 -12 -22 22 0 20 4 29
13 27 6 -3 12 -10 11 -16z m-414 -42 c12 -17 20 -35 18 -41 -6 -17 -58 30 -58
52 0 28 15 23 40 -11z m-484 -82 c17 -18 34 -48 38 -66 6 -32 5 -33 -16 -17
-34 23 -56 18 -77 -15 l-18 -31 -18 37 c-21 45 -13 65 34 78 17 5 31 12 31 17
0 4 -18 23 -40 42 -22 19 -40 37 -40 41 0 10 68 -44 106 -86z m633 46 c43 -28
164 -73 198 -74 44 0 32 -19 -19 -29 -138 -26 -134 -27 -160 16 -80 129 -80
128 -19 87z m-1060 -19 c13 -20 21 -38 18 -41 -11 -11 -56 31 -57 54 0 31 11
27 39 -13z m1617 -9 c-3 -13 -26 -47 -52 -75 -45 -50 -45 -51 -20 -51 14 0 26
-4 26 -10 0 -13 -67 -13 -75 0 -10 17 6 56 28 65 12 6 38 33 57 61 35 51 47
55 36 10z m69 -110 c-17 -59 -32 -77 -22 -26 4 20 2 32 -8 37 -11 7 -9 15 13
43 34 43 40 25 17 -54z m-1541 48 c3 -9 6 -23 6 -32 0 -14 -4 -13 -21 5 -12
11 -18 26 -15 32 10 16 23 14 30 -5z m666 -3 c0 -11 3 -28 7 -38 7 -17 6 -17
-17 -2 -13 8 -30 25 -38 37 -14 21 -13 22 17 22 24 0 31 -4 31 -19z m-3294
-79 c-7 -7 -66 9 -66 18 0 16 35 17 53 2 9 -9 15 -17 13 -20z m2541 4 c1 0 4
-13 8 -29 9 -35 -8 -36 -40 -1 -28 30 -24 48 8 38 12 -3 23 -7 24 -8z m497
-12 c12 -33 6 -55 -20 -64 -49 -19 -55 -10 -28 46 17 36 38 44 48 18z m927
-90 c-42 -46 -51 -62 -51 -93 0 -20 6 -43 13 -50 14 -15 -12 -11 -107 17 l-59
18 33 37 c20 24 67 54 124 82 50 25 93 45 95 45 1 0 -20 -25 -48 -56z m-607
-1 c4 -13 3 -23 -2 -23 -14 0 -35 47 -27 60 9 14 17 3 29 -37z m216 -125 c28
-15 47 -29 43 -31 -5 -2 -34 -1 -65 2 -48 6 -59 4 -63 -9 -3 -9 -18 -24 -35
-33 l-30 -18 0 40 c0 34 3 41 20 41 24 0 24 -5 0 64 l-19 56 49 -42 c28 -24
72 -55 100 -70z m110 90 c0 -7 -5 -20 -10 -28 -8 -12 -10 -9 -10 13 0 15 5 27
10 27 6 0 10 -6 10 -12z m-4327 -27 c18 -7 18 -7 0 -28 -10 -12 -30 -25 -45
-29 -24 -5 -28 -3 -28 14 0 49 24 63 73 43z m3675 -18 c-2 -24 -8 -29 -36 -31
-32 -3 -33 -2 -21 20 24 46 62 53 57 11z m-2544 11 c9 -3 16 -12 16 -20 0 -12
-4 -12 -20 -2 -30 19 -27 34 4 22z m3516 -42 c0 -5 -7 -17 -15 -28 -15 -19
-20 -8 -9 20 6 17 24 22 24 8z m-4700 -57 c15 -18 13 -21 -23 -30 -16 -4 -27
-3 -27 3 0 6 -3 17 -6 26 -8 21 39 22 56 1z m2670 -101 c0 -9 23 -38 51 -65
48 -46 51 -52 46 -86 -4 -20 -19 -55 -35 -77 -118 -166 -4 -254 373 -286 71
-6 131 -13 134 -15 2 -3 -30 -36 -71 -74 -42 -39 -81 -84 -88 -101 -9 -23 -22
-32 -54 -41 -102 -27 -143 -82 -131 -178 3 -31 9 -67 12 -80 6 -23 6 -23 25 8
17 26 24 29 49 24 22 -4 29 -2 29 11 0 9 7 16 15 16 13 0 13 -3 3 -20 -18 -29
-2 -36 38 -17 19 10 40 15 45 12 5 -4 9 -2 9 2 0 5 -13 14 -30 20 -23 9 -30
17 -30 38 0 23 2 26 15 15 21 -17 24 -12 38 64 l12 67 21 -23 c26 -28 37 -58
22 -58 -6 0 -8 -11 -5 -28 4 -20 -3 -44 -24 -82 -16 -29 -29 -56 -29 -60 0 -4
28 -11 63 -15 55 -6 59 -8 39 -18 -16 -7 -26 -8 -30 0 -4 6 -15 7 -27 2 -17
-6 -17 -8 -2 -8 24 -1 22 -11 -13 -57 -16 -21 -30 -42 -30 -45 0 -14 66 -32
121 -33 67 -1 74 -12 34 -51 -30 -31 -47 -31 -133 0 -38 14 -72 25 -74 25 -3
0 1 -28 9 -61 8 -34 12 -64 9 -67 -10 -9 -48 93 -53 145 -6 50 -5 52 28 72 25
15 35 17 41 8 5 -8 8 -7 8 5 0 9 -5 20 -12 24 -8 5 -2 12 17 20 l30 12 -38 7
c-21 4 -46 16 -56 26 -17 18 -20 18 -56 4 l-37 -16 28 -30 c15 -16 24 -29 20
-29 -13 0 -51 23 -64 39 -12 15 -13 14 -8 -1 3 -12 -17 -29 -85 -68 -49 -28
-89 -56 -89 -61 0 -5 -5 -9 -11 -9 -6 0 -22 -9 -36 -20 -14 -11 -44 -23 -65
-26 -34 -6 -40 -11 -45 -37 l-6 -30 -24 28 c-24 27 -26 28 -143 29 -117 1
-118 1 -156 -30 -52 -41 -77 -88 -68 -127 3 -16 30 -54 60 -85 38 -40 50 -58
41 -64 -38 -24 -91 6 -132 76 -14 24 -36 48 -50 54 -16 7 -23 17 -19 27 8 21
21 19 29 -5 3 -11 10 -20 15 -20 14 0 32 39 25 51 -8 12 -63 2 -84 -15 -11 -8
-13 -8 -7 2 5 8 -1 12 -22 12 -25 0 -30 5 -36 31 -3 17 -26 81 -51 142 -24 62
-47 124 -51 140 -3 15 -10 27 -14 27 -4 0 -8 6 -7 13 1 35 -5 48 -30 62 -24
14 -25 16 -5 12 26 -6 26 -12 5 71 -9 37 -26 77 -37 89 -25 27 -71 29 -131 8
-62 -23 -71 -16 -37 25 16 20 21 21 42 10 20 -11 22 -10 17 3 -5 13 5 17 49
23 30 3 54 8 54 9 0 2 -18 84 -40 182 -22 98 -40 185 -40 194 0 9 -18 28 -40
43 l-39 26 18 32 c11 18 32 69 47 113 15 44 28 81 29 82 0 1 29 -9 63 -23 109
-44 265 -33 652 45 102 20 188 35 193 33 4 -2 7 -10 7 -18z m1370 -61 c7 -7
-40 -43 -56 -43 -16 0 -16 5 -8 37 5 19 11 22 33 16 14 -3 28 -8 31 -10z m280
-18 c-7 -8 -10 -24 -7 -35 6 -25 -1 -25 -32 -1 l-23 18 33 21 c36 23 49 22 29
-3z m-3165 -56 c12 -19 -5 -23 -22 -6 -16 16 -16 17 -1 17 9 0 20 -5 23 -11z
m246 -19 c4 0 15 -13 24 -30 8 -16 40 -48 70 -71 31 -23 53 -44 51 -46 -12
-12 -55 15 -108 65 -56 53 -58 54 -58 28 0 -16 -4 -25 -10 -21 -5 3 -10 24
-10 47 0 32 3 39 16 34 9 -3 20 -6 25 -6z m2763 -85 c9 -36 54 -55 131 -55 50
0 65 -3 65 -14 0 -23 -16 -27 -46 -11 -38 19 -64 19 -93 -2 -23 -15 -23 -17
-6 -30 17 -12 17 -13 2 -13 -9 0 -17 4 -17 8 0 5 -18 16 -40 25 -22 8 -40 13
-40 10 0 -3 7 -32 16 -65 17 -69 13 -84 -11 -38 -26 50 -47 163 -32 172 7 3
21 14 32 22 27 21 32 20 39 -9z m-2694 -110 c42 -43 25 -45 -55 -6 -47 23 -53
28 -27 24 20 -3 32 -1 32 6 0 19 15 12 50 -24z m-296 -1 c3 -9 -4 -30 -16 -47
-21 -29 -23 -30 -26 -11 -4 25 14 74 27 74 5 0 12 -7 15 -16z m3426 -73 c5
-11 10 -31 10 -45 0 -14 3 -25 8 -24 4 0 18 -3 30 -8 21 -9 22 -11 8 -23 -14
-11 -16 -11 -16 3 0 21 -36 21 -44 0 -10 -26 -7 -34 12 -34 12 0 8 -8 -18 -29
-40 -33 -48 -33 -27 1 23 37 29 75 12 81 -13 5 -51 67 -43 70 2 1 12 7 23 14
28 16 33 16 45 -6z m-3370 -6 c11 -13 8 -15 -18 -15 -32 0 -51 15 -30 23 23 9
35 7 48 -8z m256 -36 c4 -7 23 -9 53 -5 l46 7 -24 -19 c-19 -16 -21 -21 -10
-28 13 -8 39 -56 39 -72 0 -4 -17 13 -38 36 -35 41 -39 43 -64 32 -23 -11 -30
-9 -62 15 -20 15 -36 29 -36 30 0 2 19 1 42 -2 29 -4 39 -3 34 5 -4 7 -3 12 3
12 5 0 13 -5 17 -11z m213 -28 c7 -5 9 -11 4 -14 -6 -4 -19 0 -29 8 -15 11
-16 14 -4 15 8 0 21 -4 29 -9z m44 -13 c-33 -37 -47 -68 -34 -81 20 -20 12
-25 -44 -29 -30 -1 -55 -1 -55 2 0 19 121 128 144 129 5 1 0 -9 -11 -21z
m2333 3 c-10 -11 -24 -17 -32 -14 -29 11 -11 31 30 32 18 1 18 0 2 -18z
m-3098 -87 c-14 -14 -38 11 -38 40 l0 31 21 -33 c12 -18 19 -35 17 -38z m3330
41 c29 -9 52 -20 52 -24 0 -17 -73 -73 -128 -97 -53 -23 -85 -27 -44 -5 32 17
65 78 60 111 -5 35 -7 35 60 15z m-920 -24 c9 -5 11 -17 6 -36 l-7 -28 -24 27
c-12 15 -23 31 -23 37 0 11 30 12 48 0z m796 -37 c7 -29 4 -33 -25 -43 -41
-14 -39 -15 -39 13 0 27 39 81 50 69 4 -4 11 -22 14 -39z m-294 6 c0 -27 -3
-30 -30 -30 -35 0 -38 12 -10 40 28 28 40 25 40 -10z m-2294 -75 c3 -8 -3 -29
-15 -47 l-21 -33 0 32 c0 55 22 85 36 48z m-172 -26 c-4 -7 3 -19 16 -29 12
-9 21 -23 19 -29 -3 -9 -12 -7 -29 7 -14 10 -31 17 -37 15 -8 -3 -13 4 -13 15
0 20 12 30 38 31 7 1 10 -4 6 -10z m271 -9 c3 -5 1 -10 -4 -10 -6 0 -11 5 -11
10 0 6 2 10 4 10 3 0 8 -4 11 -10z m1893 -47 c2 -13 4 -23 5 -23 1 0 26 7 55
14 28 8 52 12 52 10 0 -3 -9 -15 -21 -27 -29 -31 -79 -118 -79 -139 0 -10 -4
-18 -10 -18 -6 0 -10 30 -10 69 0 58 -3 71 -18 75 -10 3 -26 20 -36 37 l-18
30 39 -3 c31 -2 39 -7 41 -25z m955 -63 c20 -33 35 -60 33 -60 -2 0 -25 12
-52 27 -26 15 -75 34 -108 44 l-61 16 40 11 c22 6 54 13 70 15 17 2 33 5 36 6
4 0 23 -26 42 -59z m112 -4 l16 -38 -28 6 c-28 7 -73 42 -73 57 0 6 55 17 67
14 1 -1 10 -18 18 -39z m-3391 3 c33 -26 33 -55 1 -90 l-26 -26 61 -17 c82
-23 70 -31 -16 -11 -75 17 -108 34 -124 65 -10 19 -9 20 14 14 19 -4 28 0 41
20 10 14 15 35 12 46 -7 26 4 25 37 -1z m2126 -29 c0 -12 9 -38 19 -59 16 -31
51 -154 51 -179 0 -3 -13 14 -28 39 -39 60 -67 83 -92 76 -14 -4 -19 -1 -16 6
2 7 10 30 16 52 23 78 50 112 50 65z m824 -12 c3 -17 5 -33 3 -34 -6 -6 -47
27 -57 47 -10 17 -7 19 18 19 25 0 30 -5 36 -32z m-223 -37 c-28 -54 -27 -66
9 -93 l30 -22 -22 -13 c-13 -7 -33 -12 -45 -13 -20 0 -23 -5 -23 -45 0 -25 -4
-45 -9 -45 -10 0 -41 95 -41 123 0 27 -17 28 -35 1 -9 -14 -19 -23 -22 -20 -3
2 4 18 16 34 12 17 21 36 21 44 0 12 130 99 138 92 2 -1 -6 -20 -17 -43z
m-2295 3 c-6 -17 19 -50 28 -36 3 6 2 13 -4 17 -20 12 -9 21 20 17 27 -4 29
-6 13 -17 -15 -11 -15 -13 5 -24 19 -10 20 -15 11 -32 l-11 -21 -22 21 -23 22
-15 -23 c-14 -21 -15 -21 -27 27 -8 33 -9 51 -2 53 5 2 7 11 4 20 -6 15 -5 15
11 3 9 -8 15 -20 12 -27z m-600 -2 c6 -4 13 -15 17 -24 6 -16 141 -88 166 -88
6 0 11 -4 11 -10 0 -24 -68 -8 -135 31 -110 64 -101 62 -97 21 2 -31 1 -34 -8
-19 -16 26 -30 78 -24 88 6 11 55 12 70 1z m442 -65 c58 -84 58 -95 3 -44 -32
28 -63 47 -77 47 -28 0 -29 3 -8 35 20 31 42 21 82 -38z m76 39 c3 -13 9 -31
12 -40 5 -13 1 -15 -27 -10 -44 9 -45 10 -26 32 10 10 17 24 17 30 0 22 18 12
24 -12z m2781 -23 c-23 -56 -9 -83 54 -110 32 -14 33 -14 15 -34 -48 -53 -83
-47 -124 18 l-29 46 -36 -74 c-43 -90 -37 -45 8 61 26 61 38 78 67 92 44 23
54 23 45 1z m375 -21 c0 -14 -35 -42 -52 -42 -19 0 -21 4 -12 36 4 16 12 19
35 16 16 -2 29 -7 29 -10z m-4636 -18 c20 -8 21 -28 2 -43 -11 -9 -15 -8 -20
5 -7 18 -8 44 -2 44 2 0 11 -3 20 -6z m3570 -10 c9 -3 16 -10 16 -15 0 -14
-26 -10 -40 6 -13 16 -3 20 24 9z m-100 -44 c-13 -14 -27 -18 -39 -14 -17 7
-17 8 1 21 10 7 27 13 38 13 l20 0 -20 -20z m-224 -25 c28 -11 30 -14 13 -14
-28 -1 -28 -6 -3 -39 12 -15 17 -28 11 -32 -12 -6 -3 -50 9 -50 5 0 10 6 13
13 5 16 -1 -13 -20 -93 -8 -36 -17 -75 -20 -88 -5 -23 -4 -23 43 -17 l49 6
-25 -22 -25 -22 24 6 c21 5 23 3 17 -25 -9 -46 -44 -120 -55 -114 -8 5 -34
-74 -27 -82 2 -1 11 16 20 38 14 35 19 39 35 30 30 -15 82 -12 152 10 35 10
65 17 68 15 2 -3 -1 -23 -8 -45 -17 -56 -42 -70 -128 -70 -40 0 -73 -3 -73 -7
0 -5 13 -28 29 -52 23 -34 27 -47 18 -56 -14 -16 -47 -1 -47 20 0 8 -9 19 -21
25 -19 10 -20 10 -10 -9 6 -11 16 -32 22 -48 l10 -28 -26 25 c-14 14 -35 39
-46 56 -12 20 -30 34 -50 38 -30 6 -32 26 -3 26 17 0 17 -1 0 47 -14 39 -14
40 21 77 27 29 38 34 44 24 6 -9 9 -7 9 9 0 12 -7 26 -16 31 -14 8 -12 12 11
30 l28 22 -61 0 c-48 0 -63 4 -71 18 -9 16 -12 15 -33 -5 -16 -17 -18 -23 -8
-23 8 0 21 -4 29 -9 11 -7 11 -12 0 -32 -7 -13 -12 -30 -11 -36 2 -7 -5 -13
-14 -13 -10 0 -14 5 -10 15 3 9 -4 21 -20 31 -23 15 -23 18 -9 34 15 16 14 18
-7 24 -34 9 -34 9 -30 -31 4 -35 3 -37 -12 -23 -15 15 -15 20 0 64 12 34 20
46 31 42 8 -3 24 -1 35 5 18 9 24 8 35 -7 10 -13 16 -15 25 -6 8 8 16 5 30
-14 11 -13 24 -24 29 -24 16 0 10 57 -6 64 -14 5 -13 10 5 34 24 32 39 102 21
102 -6 0 -11 -3 -11 -7 0 -5 -8 -18 -18 -30 -16 -22 -17 -20 -17 67 0 80 2 91
19 96 15 5 16 8 5 15 -20 13 -26 11 -32 -8 -2 -10 -24 -28 -48 -41 l-44 -23
53 50 c29 28 56 51 60 50 4 0 23 -7 42 -14z m-2120 -77 c0 -12 -56 -9 -130 7
-42 8 -54 13 -35 14 38 2 59 15 52 33 -3 9 16 3 54 -16 32 -17 59 -34 59 -38z
m2408 46 c2 -10 16 -31 30 -46 14 -15 24 -29 21 -31 -2 -2 -13 -9 -24 -15 -18
-10 -17 -11 13 -12 18 0 31 4 28 9 -3 5 10 18 29 30 19 11 35 25 35 31 0 21
18 9 30 -20 15 -37 13 -40 -39 -47 -23 -3 -41 -7 -41 -10 0 -2 19 -40 41 -86
l42 -82 -67 63 c-68 63 -106 78 -134 50 -15 -15 -16 9 -3 63 5 20 4 43 0 52
-11 19 9 79 25 74 6 -2 13 -12 14 -23z m-1843 -62 c-7 -7 -45 29 -45 41 0 6
11 0 25 -13 14 -13 23 -26 20 -28z m1171 22 c4 -17 2 -29 -6 -34 -7 -4 -16
-37 -19 -71 -6 -60 -7 -63 -20 -40 -12 22 -10 97 5 135 4 10 -2 12 -20 9 -32
-6 -34 4 -3 17 39 16 56 11 63 -16z m-148 -74 c14 0 17 -7 14 -40 -5 -51 -23
-40 -46 27 -20 58 -20 77 0 41 8 -16 22 -28 32 -28z m1257 41 c3 -5 1 -12 -4
-16 -14 -8 -62 5 -55 16 7 12 51 12 59 0z m-3861 -25 c-3 -9 -13 -16 -22 -16
-13 0 -12 3 3 20 20 23 29 21 19 -4z m1267 13 c12 -6 18 -17 15 -25 -3 -9 1
-14 11 -14 13 0 14 -3 5 -12 -9 -9 -18 -8 -39 2 -16 7 -23 15 -16 17 9 3 10
10 3 24 -12 22 -7 24 21 8z m75 -40 c-26 -66 -28 -87 -6 -109 19 -19 19 -19
-24 -39 -90 -39 -96 -38 -75 16 10 27 111 174 117 169 1 -2 -4 -18 -12 -37z
m-220 -28 l-27 -28 23 -7 c19 -5 68 -63 68 -81 0 -2 -26 14 -57 35 l-57 40
-26 -25 -27 -26 -52 25 c-55 25 -55 27 18 41 26 6 30 10 20 17 -10 7 -5 8 16
5 19 -4 46 2 70 13 56 26 63 24 31 -9z m2639 9 c-20 -23 -29 -21 -19 4 3 9 13
16 22 16 13 0 12 -3 -3 -20z m-41 -9 c11 -17 -5 -39 -25 -34 -22 6 -24 14 -7
31 14 14 25 15 32 3z m816 -45 c-1 -21 -1 -21 -15 -2 -21 27 -20 53 0 36 8 -7
15 -22 15 -34z m223 25 c18 -6 18 -7 0 -23 -21 -19 -63 -33 -63 -21 1 46 22
61 63 44z m-4048 -25 c18 -13 18 -14 -3 -25 -47 -25 -90 -5 -50 23 27 19 29
19 53 2z m1793 -108 c-13 -9 -23 -16 -24 -15 -1 1 6 32 15 69 l16 67 8 -52 c7
-47 5 -53 -15 -69z m1538 37 c-28 -23 -123 -55 -161 -55 -11 0 3 13 35 33 35
20 62 46 75 69 l20 38 30 -31 30 -30 -29 -24z m238 61 c-3 -9 -13 -16 -22 -16
-13 0 -12 3 3 20 20 23 29 21 19 -4z m-1717 -44 c-27 -29 -35 -11 -12 25 13
20 19 23 26 12 5 -9 1 -22 -14 -37z m876 26 c22 1 87 -26 87 -36 -1 -4 -12
-27 -25 -52 l-24 -45 -1 33 c0 29 -2 32 -20 22 -10 -6 -47 -36 -81 -68 l-63
-57 28 45 c15 25 37 62 49 82 15 26 29 38 45 38 12 0 22 4 22 9 0 15 -18 23
-25 11 -4 -6 -13 -5 -25 3 -25 15 -26 32 -2 22 9 -4 25 -7 35 -7z m-411 -20
c-6 -6 -15 -8 -19 -4 -4 4 -1 11 7 16 19 12 27 3 12 -12z m-1587 -12 c20 8 47
-20 39 -41 -3 -7 9 -23 25 -35 34 -24 42 -13 12 14 -11 10 -19 26 -18 37 1 16
7 13 40 -18 50 -49 55 -73 25 -117 -22 -32 -26 -34 -40 -20 -23 23 -67 10
-144 -41 l-64 -43 0 27 c0 14 7 37 16 49 9 13 13 30 10 38 -4 10 -1 14 6 11 7
-2 12 -11 10 -21 -2 -9 1 -16 7 -16 5 0 18 -3 28 -7 17 -6 17 -5 -1 15 -18 21
-18 22 0 28 11 4 39 15 64 24 l44 17 -40 21 c-30 15 -43 30 -51 57 -9 29 -9
34 1 25 8 -5 21 -7 31 -4z m2229 4 c14 -5 26 -16 26 -23 0 -15 72 -86 105
-105 11 -6 17 -13 14 -17 -12 -11 -56 14 -112 65 -49 45 -57 49 -57 30 0 -11
-4 -18 -10 -15 -13 8 -13 75 -1 75 5 0 21 -4 35 -10z m607 -19 c-16 -22 -27
-28 -43 -23 -21 5 -21 6 6 29 15 12 34 23 42 23 12 0 11 -6 -5 -29z m-1497 -7
c21 -20 20 -36 0 -32 -9 2 -20 13 -25 26 -10 26 3 29 25 6z m-364 -33 c0 -47
-11 -56 -73 -65 l-48 -7 29 -37 c42 -54 49 -70 18 -42 -45 40 -86 106 -86 138
0 39 8 45 37 22 19 -15 29 -17 53 -9 16 6 34 17 41 25 20 24 29 16 29 -25z
m870 31 c0 -5 -11 -14 -25 -20 -20 -9 -25 -9 -25 2 0 14 14 24 38 25 6 1 12
-3 12 -7z m40 -32 c0 -27 -3 -30 -30 -30 -34 0 -36 6 -14 38 22 32 44 28 44
-8z m-1486 2 c2 -4 -5 -23 -17 -42 -24 -38 -35 -24 -17 21 12 29 24 36 34 21z
m816 -66 c0 -5 -7 -1 -15 10 -8 10 -14 24 -14 29 0 6 6 1 14 -9 8 -11 15 -24
15 -30z m-1390 19 l25 -14 -37 -1 c-36 0 -47 8 -31 23 9 9 14 8 43 -8z m3238
3 c7 -7 12 -16 12 -20 0 -11 -41 -10 -59 1 -11 7 -10 11 5 20 24 13 28 13 42
-1z m-2429 -7 c8 -5 12 -19 9 -34 -6 -30 6 -37 59 -37 l36 0 -43 -40 c-32 -29
-46 -37 -52 -28 -11 18 -10 36 2 43 7 4 -4 23 -25 46 -19 21 -35 44 -35 49 0
12 30 13 49 1z m501 -30 c0 -24 -5 -29 -30 -33 -35 -5 -37 0 -9 36 27 34 39
33 39 -3z m388 -24 l23 -13 -28 -13 c-15 -8 -43 -20 -62 -28 l-33 -14 33 40
c38 46 36 45 67 28z m801 -59 c1 -8 -54 11 -109 37 l-35 16 33 -5 c25 -4 32
-2 32 10 0 12 11 7 39 -17 22 -19 40 -37 40 -41z m-1348 -1 c-8 -8 -11 -5 -11
9 0 27 14 41 18 19 2 -9 -1 -22 -7 -28z m55 28 c3 -8 -3 -29 -15 -47 l-21 -33
0 32 c0 55 22 85 36 48z m219 -26 c12 -23 13 -29 2 -29 -20 0 -37 21 -37 48 0
29 15 21 35 -19z m1563 1 c26 -26 35 -29 51 -20 27 14 31 13 31 -9 0 -20 18
-31 51 -31 11 0 18 -4 15 -9 -3 -5 2 -12 11 -15 14 -6 15 -9 4 -16 -18 -11
-41 -2 -35 13 3 10 -66 47 -89 47 -19 0 -3 -23 28 -42 20 -11 34 -23 31 -26
-3 -2 -17 3 -32 12 -29 20 -34 17 -52 -27 l-12 -32 5 30 c2 17 7 39 10 50 4
16 -5 26 -40 47 l-46 28 7 -35 c3 -19 4 -35 0 -35 -11 0 -36 59 -36 86 0 25 3
26 33 21 19 -3 47 -19 65 -37z m-3227 -13 c-8 -21 -6 -23 22 -25 31 -3 47 -16
47 -40 0 -9 -12 -7 -39 8 -25 12 -42 16 -46 10 -10 -16 -23 -11 -30 12 -6 16
-1 26 16 39 32 25 40 24 30 -4z m619 -1 l45 -15 -42 0 c-28 -1 -45 -6 -51 -17
-8 -15 -14 -14 -48 11 -22 16 -43 33 -49 38 -14 13 88 1 145 -17z m1396 3 c15
-16 16 -24 6 -39 -16 -26 -15 -53 3 -120 8 -30 12 -57 9 -60 -3 -3 -16 7 -29
22 -18 21 -24 44 -30 107 l-7 80 -24 -16 c-37 -24 -44 -5 -9 23 37 29 56 30
81 3z m-787 -28 c-6 -17 -8 -43 -5 -56 6 -23 3 -25 -24 -25 -16 0 -30 3 -30 6
0 14 62 116 67 110 2 -2 -2 -17 -8 -35z m1772 20 c9 -8 -13 -131 -23 -131 -4
0 -8 7 -8 17 0 22 -46 99 -64 106 -8 3 -17 0 -20 -8 -4 -11 -11 -11 -35 -2
-32 12 -22 31 11 21 10 -3 25 -1 34 4 18 10 94 5 105 -7z m964 -2 c11 -17 -1
-21 -15 -4 -8 9 -8 15 -2 15 6 0 14 -5 17 -11z m-3140 -65 c40 -62 39 -87 -1
-36 -31 39 -44 41 -44 6 0 -24 -3 -25 -27 -19 -16 3 -50 17 -78 30 l-50 23 45
-5 c54 -6 100 10 107 37 3 11 7 20 9 20 2 0 20 -25 39 -56z m683 33 c2 -10 -7
-50 -19 -90 l-23 -72 -6 67 c-3 37 -11 73 -17 80 -19 18 -16 26 10 31 36 7 52
3 55 -16z m-2389 -23 c3 -17 2 -17 -20 -3 -32 22 -37 41 -7 30 13 -4 25 -17
27 -27z m1952 -11 c16 -10 29 -21 29 -25 0 -12 -58 13 -64 28 -7 18 0 18 35
-3z m264 -25 c-32 -38 -36 -47 -30 -78 4 -19 9 -46 12 -60 2 -14 -3 -34 -11
-45 -15 -20 -15 -20 -16 3 0 13 -5 32 -10 43 -8 15 -7 19 5 19 17 0 19 9 6 29
-7 11 -13 7 -25 -17 -9 -17 -16 -38 -16 -47 0 -8 -4 -15 -9 -15 -5 0 -16 -3
-25 -6 -24 -9 -20 33 4 48 16 11 20 24 20 73 l0 61 58 16 c31 8 61 16 65 17 5
0 -8 -18 -28 -41z m1449 -14 c14 -8 29 -29 35 -46 11 -31 11 -31 -9 -13 -16
15 -20 15 -20 3 0 -8 -16 -19 -35 -25 -30 -10 -35 -9 -35 5 0 10 7 30 15 46
15 27 14 31 -7 55 l-23 25 28 -17 c15 -9 38 -24 51 -33z m-2311 20 c18 -9 43
-25 56 -35 25 -20 91 -26 91 -9 0 6 5 10 10 10 6 0 10 -6 10 -14 0 -8 15 -17
38 -21 20 -3 47 -13 60 -21 21 -14 23 -13 28 16 6 26 11 30 40 30 30 0 34 -3
34 -27 0 -14 -16 -54 -35 -88 -19 -34 -31 -66 -27 -71 4 -5 -3 0 -16 11 l-23
19 5 -27 c5 -31 -13 -37 -38 -11 -21 20 -21 41 -1 24 18 -15 20 0 3 19 -11 11
-10 13 5 8 12 -5 17 -1 17 12 0 14 -7 18 -25 17 -14 0 -25 -7 -25 -15 0 -11
-3 -12 -11 -4 -9 9 -9 23 -2 52 9 35 8 40 -8 44 -13 4 -19 0 -19 -11 0 -35
-16 -44 -59 -37 -30 5 -41 11 -41 25 0 10 -15 29 -33 43 -32 24 -34 25 -45 6
-17 -26 -15 -29 13 -29 22 0 25 -4 25 -35 0 -41 -3 -42 -37 -15 -34 26 -43 25
-43 -4 0 -43 -16 -37 -45 15 -19 35 -24 54 -17 61 8 8 6 19 -6 37 l-16 26 27
-24 c14 -13 24 -27 22 -31 -2 -4 6 -17 19 -29 17 -16 26 -19 31 -10 5 7 -2 19
-16 30 l-24 19 27 0 c42 0 41 16 -2 34 -22 9 -40 18 -40 21 0 12 63 4 93 -11z
m1397 -46 c19 11 20 9 20 -32 0 -24 3 -53 7 -63 12 -35 -61 45 -91 99 l-29 53
37 -35 c32 -30 39 -33 56 -22z m1073 35 c4 -3 5 -8 2 -13 -6 -10 -45 9 -45 22
0 7 22 2 43 -9z m939 -97 c18 -13 9 -39 -12 -34 -7 2 -15 -3 -17 -11 -4 -9 0
-11 15 -7 11 4 23 2 27 -4 3 -5 -2 -10 -14 -10 -12 0 -23 -9 -27 -22 l-7 -23
-9 24 c-5 15 -4 54 2 98 5 41 11 80 11 86 1 7 5 -10 8 -37 4 -27 14 -54 23
-60z m-2153 11 c10 -12 1 -15 -56 -19 -38 -3 -69 -4 -71 -3 -2 2 11 19 28 39
l32 36 27 -20 c15 -10 33 -25 40 -33z m1591 18 l55 -30 -35 -3 c-19 -1 -66 4
-105 12 -53 10 -62 14 -35 15 43 2 65 14 55 31 -9 15 -6 14 65 -25z m-2248
-17 c-13 -13 11 -65 37 -85 13 -9 14 -14 4 -24 -11 -11 -13 -10 -13 3 0 23
-16 31 -42 22 l-22 -7 23 -18 c13 -11 29 -19 37 -19 8 0 14 -8 14 -17 0 -10 3
-29 6 -43 4 -19 0 -17 -15 11 -27 48 -79 92 -103 86 -23 -6 -23 -8 9 57 15 32
31 52 39 49 6 -2 16 1 20 8 6 11 8 11 12 0 2 -7 -1 -18 -6 -23z m1452 20 c3
-7 7 -28 10 -46 l6 -32 -29 14 c-24 13 -61 55 -61 71 0 11 71 4 74 -7z m-2219
-48 c14 -22 25 -44 25 -50 0 -5 -21 -10 -46 -10 -45 0 -45 0 -30 22 9 12 16
35 16 50 0 16 2 28 5 28 3 0 16 -18 30 -40z m675 7 c0 -5 -12 -6 -27 -2 -34 8
-37 11 -29 24 8 12 56 -7 56 -22z m2450 13 c-11 -20 -30 -28 -30 -12 0 11 22
32 32 32 5 0 4 -9 -2 -20z m-200 -40 c6 0 10 7 10 15 0 17 18 19 40 5 13 -9
11 -13 -10 -30 -21 -17 -23 -21 -10 -30 8 -5 18 -10 23 -10 4 0 7 -4 7 -9 0
-15 -81 -25 -90 -11 -5 8 -13 9 -21 4 -12 -6 -12 -5 -1 8 8 9 19 15 25 13 18
-7 41 11 32 24 -5 9 -10 9 -21 0 -12 -9 -14 -6 -14 22 1 28 2 31 11 17 5 -10
14 -18 19 -18z m516 3 c-3 -10 -12 -43 -21 -74 -14 -50 -19 -57 -50 -66 -19
-6 -35 -9 -35 -7 0 2 16 25 36 51 20 27 44 63 52 81 17 35 26 43 18 15z
m-3568 -17 c45 -29 141 -126 125 -126 -7 0 -15 5 -18 10 -13 21 -106 60 -144
60 l-39 0 10 40 c6 22 14 40 19 40 5 0 26 -11 47 -24z m2652 15 c0 -19 -12
-41 -20 -36 -10 6 -1 45 11 45 5 0 9 -4 9 -9z m-1141 -109 c18 -3 22 -8 17
-25 -3 -12 -6 -28 -6 -35 0 -8 -9 -12 -22 -10 -17 2 -28 19 -49 78 -37 100
-36 116 4 50 22 -38 40 -56 56 -58z m1358 81 c-9 -9 -20 -13 -24 -9 -4 4 1 14
11 22 25 18 35 8 13 -13z m-1772 -3 c3 -5 1 -10 -4 -10 -6 0 -11 5 -11 10 0 6
2 10 4 10 3 0 8 -4 11 -10z m306 -47 c3 -24 2 -43 -2 -43 -12 0 -79 69 -79 81
0 6 16 9 38 7 35 -3 37 -5 43 -45z m223 17 c8 0 20 -10 29 -22 12 -18 18 -20
28 -11 10 10 9 14 -4 19 -9 3 -17 12 -17 20 0 23 20 16 30 -11 5 -14 14 -25
19 -25 8 0 31 -52 31 -71 0 -5 -7 -9 -15 -9 -18 0 -35 -31 -35 -66 0 -22 2
-24 15 -14 19 16 32 6 37 -31 4 -25 1 -32 -19 -40 -25 -9 -69 -12 -45 -2 6 2
12 14 11 26 0 21 -1 21 -8 2 -7 -18 -9 -17 -24 12 -23 43 -21 85 4 116 15 20
18 31 10 44 -9 16 -10 14 -11 -9 0 -17 -8 -31 -19 -38 -11 -5 -23 -19 -26 -30
-11 -34 -21 -22 -17 21 3 29 7 38 15 30 17 -17 30 -13 24 9 -3 11 -1 20 4 20
15 0 10 27 -6 34 -10 4 -14 -1 -12 -16 1 -11 -4 -23 -12 -26 -11 -4 -13 3 -8
31 4 28 2 35 -8 31 -10 -4 -12 1 -8 16 5 19 7 20 15 6 5 -9 15 -16 22 -16z
m1841 19 c4 -6 5 -13 1 -16 -8 -8 -56 6 -56 17 0 13 47 13 55 -1z m-1176 -46
c-20 -53 -82 -123 -170 -190 -9 -7 -1 15 18 53 38 77 41 102 12 138 l-20 26
85 0 86 0 -11 -27z m-1517 -53 c6 0 8 7 4 15 -3 8 -2 15 2 15 13 0 69 -65 77
-89 7 -23 6 -23 -15 -8 -12 8 -29 13 -36 10 -8 -3 -14 0 -14 6 0 6 -15 11 -34
11 -28 0 -36 5 -46 30 -18 44 -47 40 -56 -7 -3 -21 -9 -54 -13 -73 l-7 -34
-24 64 c-14 36 -26 68 -28 73 -2 4 11 7 30 7 32 1 32 1 13 17 -19 15 -18 15
17 10 30 -5 36 -3 31 10 -3 8 15 -1 41 -21 26 -20 52 -36 58 -36z m2475 49
c49 -16 66 -28 87 -60 28 -42 25 -50 -8 -20 -12 10 -52 37 -90 60 -79 46 -77
50 11 20z m-474 -14 c10 -14 15 -25 11 -25 -11 0 -44 32 -44 42 0 15 15 8 33
-17z m-1408 -102 c4 -29 12 -54 18 -54 27 -3 44 4 72 31 36 33 63 35 71 4 13
-50 1 -68 -62 -98 l-62 -29 57 -49 c54 -48 56 -49 62 -26 5 22 6 22 23 -10 10
-19 16 -36 13 -38 -10 -10 -111 52 -167 103 -46 42 -60 61 -60 83 0 24 -3 27
-21 23 l-21 -6 20 40 c11 21 24 57 28 78 8 47 17 31 29 -52z m1314 28 c-30
-32 -56 -57 -57 -55 -2 1 8 23 23 48 22 37 47 57 84 65 1 1 -21 -25 -50 -58z
m431 37 c0 -41 -13 -46 -48 -22 l-34 23 34 10 c47 13 48 13 48 -11z m-2665
-48 c4 -6 -6 -5 -22 1 -27 10 -43 25 -43 42 0 9 56 -28 65 -43z m2025 39 c0
-17 -21 -52 -62 -101 l-39 -47 26 -7 c28 -7 114 24 96 35 -8 6 41 71 54 71 3
0 3 -16 -1 -36 -6 -34 -3 -39 52 -96 33 -34 51 -58 41 -54 -15 5 -17 2 -12
-15 6 -18 4 -20 -17 -14 -12 4 -24 11 -26 15 -15 39 -30 44 -121 45 -50 0 -91
2 -91 4 0 2 8 10 18 17 15 12 14 13 -15 14 -17 0 -34 4 -37 9 -10 16 12 58 32
63 11 3 35 29 54 57 32 49 48 63 48 40z m1173 -41 c-3 -15 -12 -29 -20 -33
-24 -9 -24 -2 -2 34 23 38 29 38 22 -1z m-493 -23 c-19 -20 -35 -49 -39 -69
l-6 -36 -29 23 -28 23 23 27 c24 28 100 77 108 70 3 -2 -10 -19 -29 -38z
m-1331 5 l16 -24 -27 19 c-15 11 -28 24 -28 28 0 15 23 1 39 -23z m-738 -114
c10 -62 14 -70 40 -79 24 -10 29 -17 29 -45 l0 -35 48 6 c26 2 55 8 66 12 16
7 17 5 7 -11 -6 -10 -20 -30 -31 -43 l-21 -24 -27 24 c-15 14 -40 31 -55 39
-35 17 -76 72 -60 77 8 3 -1 28 -23 68 l-35 63 23 34 23 35 3 -26 c1 -14 7
-57 13 -95z m1745 4 c17 0 17 -5 4 -31 -10 -19 -12 -18 -34 8 -25 31 -66 97
-66 106 0 4 19 -14 41 -38 23 -25 48 -45 55 -45z m544 55 c0 -26 -16 -42 -23
-23 -3 10 -7 10 -20 -1 -14 -11 -17 -11 -17 0 0 22 15 40 31 36 8 -2 11 -2 6
0 -4 3 -5 9 -1 14 9 15 24 -1 24 -26z m-1550 11 c0 -3 -4 -8 -10 -11 -5 -3
-10 -1 -10 4 0 6 5 11 10 11 6 0 10 -2 10 -4z m869 -88 c1 -9 -31 -10 -52 -2
-13 5 -12 11 6 38 l22 33 12 -31 c6 -17 12 -34 12 -38z m241 65 c0 -5 -4 -14
-9 -22 -7 -11 0 -19 32 -33 45 -20 74 -43 87 -69 7 -12 4 -15 -13 -15 -17 1
-23 -6 -25 -28 -3 -25 -1 -28 18 -23 15 4 32 -4 55 -25 39 -33 39 -33 51 47 5
33 9 42 12 26 6 -37 -18 -154 -35 -173 -22 -25 -33 -22 -33 6 0 28 -33 56 -67
56 -25 0 -28 7 -14 29 7 11 2 24 -15 45 -16 18 -23 36 -20 48 3 10 9 26 12 36
4 14 -2 22 -28 33 -18 7 -39 12 -45 11 -7 -2 -11 4 -8 13 3 8 7 22 10 30 4 15
35 22 35 8z m-2004 -16 c-51 -33 -76 -60 -76 -85 0 -38 -16 -60 -31 -45 -10
10 -10 22 0 55 22 73 36 88 84 87 36 0 40 -2 23 -12z m2670 -55 c-4 -3 -11 -1
-17 5 -6 6 -6 19 3 39 l12 29 4 -33 c2 -19 1 -37 -2 -40z m-1681 2 c15 -23 14
-24 -4 -24 -20 0 -51 24 -51 40 0 5 -3 16 -7 25 -6 16 -5 16 20 1 14 -10 33
-28 42 -42z m-1825 16 c27 -26 42 -59 22 -46 -5 3 -21 7 -37 10 -33 6 -40 13
-50 44 -10 33 27 29 65 -8z m866 -5 c0 -44 40 -88 131 -141 l65 -38 -22 -18
c-12 -10 -28 -18 -36 -18 -9 0 -11 -6 -7 -17 6 -16 5 -16 -10 -5 -9 8 -16 17
-15 20 0 4 0 12 -1 18 -1 15 -90 114 -102 114 -5 0 -6 -15 -2 -32 l6 -33 -28
25 c-15 14 -36 38 -47 53 l-20 28 36 -20 c40 -23 40 -23 27 11 -8 21 9 88 22
88 1 0 3 -16 3 -35z m2604 -9 c15 -19 11 -20 -24 -6 -14 5 -26 17 -26 25 0 12
4 13 18 6 10 -5 24 -17 32 -25z m-2886 -7 c-3 -5 2 -9 11 -9 11 0 15 -7 13
-22 -5 -33 -25 -32 -36 2 -6 16 -18 30 -26 30 -16 0 -21 12 -10 23 9 8 54 -14
48 -24z m2641 -37 c-8 -8 -35 20 -35 37 1 12 5 11 21 -8 11 -13 17 -26 14 -29z
m-2105 9 c0 -25 -20 -38 -31 -20 -15 23 -10 39 11 39 13 0 20 -7 20 -19z
m2279 -22 c-12 -17 -34 -61 -50 -97 -30 -71 -36 -61 -16 26 9 37 21 60 42 77
41 33 51 31 24 -6z m-1909 -9 c0 -16 -4 -30 -9 -30 -12 0 -24 37 -16 50 12 20
25 10 25 -20z m-780 -14 c0 -3 -4 -8 -10 -11 -5 -3 -10 -1 -10 4 0 6 5 11 10
11 6 0 10 -2 10 -4z m931 -36 c10 -35 9 -127 0 -175 -5 -22 -9 -31 -10 -19 -3
49 -35 129 -62 155 l-29 27 32 20 c42 26 60 24 69 -8z m-1023 -46 c-3 -26 -3
-26 -26 -7 -21 17 -22 21 -11 46 12 26 12 26 26 7 8 -11 13 -32 11 -46z m119
58 c7 -4 9 -13 4 -21 -10 -16 -31 -6 -31 15 0 16 9 18 27 6z m1223 -9 c0 -5
-7 -17 -15 -27 -14 -19 -15 -19 -15 7 0 17 5 27 15 27 8 0 15 -3 15 -7z
m-1636 -19 c14 -5 14 -9 1 -34 -8 -16 -15 -31 -15 -34 0 -2 30 -15 68 -27 81
-28 66 -33 -46 -16 -83 12 -83 12 -109 56 -22 38 -23 42 -7 37 11 -3 30 1 44
9 28 16 41 18 64 9z m979 -49 c-4 -41 -2 -61 11 -80 9 -14 15 -25 14 -25 -2 0
-18 -4 -37 -10 l-34 -9 5 43 c5 38 36 136 44 136 1 0 0 -25 -3 -55z m-523 -45
c1 -32 2 -33 12 -13 17 34 35 35 99 2 l60 -30 -7 36 c-3 20 -2 35 3 35 5 0 10
-6 11 -12 1 -7 8 -38 17 -68 14 -51 14 -56 -2 -67 -24 -18 -28 -16 -41 12 -7
14 -22 30 -35 36 -20 9 -28 7 -53 -16 -19 -17 -36 -25 -51 -22 -12 2 -24 0
-25 -5 -2 -5 -14 5 -26 21 -18 25 -20 34 -11 49 14 22 3 96 -12 87 -5 -4 -9 4
-9 17 0 18 2 20 10 8 7 -11 10 -11 10 -2 0 7 5 10 10 7 6 -3 10 0 11 7 1 26
28 -48 29 -82z m2330 41 c0 -45 -9 -57 -25 -34 -9 12 -9 25 -2 49 13 42 27 34
27 -15z m-328 22 c10 -9 18 -20 18 -25 0 -11 -38 14 -44 29 -7 18 4 16 26 -4z
m-1887 -2 c3 -5 1 -12 -5 -16 -5 -3 -10 1 -10 9 0 18 6 21 15 7z m38 -22 c-8
-8 -13 -8 -17 0 -4 6 -2 11 4 11 6 0 8 6 4 13 -6 10 -4 10 7 0 9 -10 10 -16 2
-24z m990 -21 l62 -32 -48 -7 c-26 -4 -64 -17 -83 -28 -40 -24 -44 -25 -44
-10 0 13 41 109 47 109 2 0 32 -14 66 -32z m347 20 c0 -17 -18 -44 -24 -37 -8
7 5 49 15 49 5 0 9 -6 9 -12z m-806 -29 c-8 -17 -22 -49 -29 -70 -13 -37 -13
-40 22 -98 l36 -60 28 39 c33 45 30 44 82 29 39 -10 44 -18 26 -36 -20 -20 0
-64 58 -124 31 -33 54 -62 51 -65 -12 -11 -68 -6 -90 8 -13 8 -41 47 -63 86
-22 40 -42 72 -45 71 -3 0 -19 -23 -37 -52 -24 -38 -32 -46 -33 -31 0 26 -25
50 -35 34 -5 -8 -11 -8 -19 0 -10 7 -21 4 -40 -11 l-28 -22 -25 25 c-21 22
-23 29 -13 47 8 16 15 19 23 12 8 -6 18 -5 28 3 15 10 15 18 -3 91 -11 43 -16
81 -12 82 5 2 34 18 64 37 69 43 74 43 54 5z m1760 -94 c-7 -83 -8 -84 -19
-22 -4 28 -11 37 -25 37 -19 0 -18 3 7 55 25 51 28 54 36 33 5 -13 5 -59 1
-103z m189 30 c15 -25 27 -48 27 -50 0 -3 -20 -5 -45 -5 l-46 0 17 31 c8 17
14 40 11 50 -9 33 7 21 36 -26z m-349 -37 c-13 -26 -24 -50 -24 -53 0 -3 15
-5 33 -5 l32 -1 -25 -14 c-14 -8 -37 -14 -52 -15 -26 0 -28 2 -28 45 0 31 4
45 13 45 7 0 21 16 30 35 14 30 19 34 31 23 12 -11 10 -20 -10 -60z m-2965
-24 c9 -8 -9 -16 -48 -21 -41 -6 -51 3 -30 24 10 10 65 8 78 -3z m1856 -91
c24 4 25 3 25 -59 0 -35 -4 -64 -9 -64 -13 0 -93 109 -133 180 l-31 55 62 -59
c49 -46 67 -57 86 -53z m205 101 c22 -5 41 -20 61 -47 33 -45 36 -57 14 -57
-27 0 -35 -34 -24 -95 6 -32 15 -68 20 -81 10 -28 2 -30 -28 -6 -55 44 -79
127 -48 168 17 22 20 54 5 54 -5 0 -10 7 -10 15 0 10 -11 15 -37 16 -50 1 -93
14 -73 22 50 18 71 20 120 11z m-1312 -66 c40 -37 50 -53 40 -59 -8 -5 -20 0
-33 15 -11 13 -30 29 -43 36 -23 11 -23 10 -20 -27 3 -37 4 -38 41 -36 54 3
62 -24 40 -125 -9 -42 -17 -89 -17 -104 -1 -25 -16 -42 -16 -19 0 10 -69 36
-76 28 -3 -2 11 -18 31 -35 19 -17 35 -34 35 -37 0 -3 -12 -5 -27 -5 -22 0
-34 10 -57 46 -16 25 -32 42 -37 37 -5 -5 -19 -30 -31 -56 -22 -43 -24 -46
-35 -27 -11 17 -10 18 4 13 15 -6 14 -1 -5 30 -12 20 -19 44 -16 52 5 12 -2
15 -34 15 -31 0 -47 7 -69 28 -15 16 -35 31 -43 34 -13 4 -13 7 -2 21 15 18 2
28 -52 41 -28 7 -28 7 -24 76 2 38 7 73 12 77 4 4 60 9 124 10 93 2 109 0 77
-8 -74 -17 -97 -30 -92 -51 6 -21 -4 -19 -72 8 l-34 14 7 -32 c8 -43 38 -82
65 -86 13 -2 20 -10 19 -19 -2 -11 14 -24 50 -39 l52 -24 0 40 c0 22 5 40 10
40 14 0 30 -44 30 -83 l0 -31 45 44 44 43 -55 23 c-31 12 -58 25 -62 28 -15
16 60 3 113 -19 33 -14 61 -25 63 -25 1 0 2 16 2 35 0 34 -1 35 -37 35 -21 1
-67 7 -103 13 l-65 13 62 12 c67 14 113 43 113 73 0 31 22 22 78 -33z m303
-21 c-6 -6 -11 -17 -11 -25 0 -12 3 -12 16 -1 14 11 15 10 13 -7 -2 -11 6 -33
19 -48 25 -33 28 -46 8 -46 -7 0 -19 -6 -25 -14 -10 -12 -7 -18 18 -30 16 -9
36 -14 43 -11 9 4 23 -15 42 -52 l28 -58 -49 51 c-62 66 -102 88 -139 74 -24
-9 -26 -8 -21 10 3 11 1 18 -4 15 -4 -3 -19 6 -31 20 -13 15 -31 25 -43 23
-11 -1 -21 1 -22 5 -7 19 -1 27 21 27 30 0 57 -10 52 -19 -2 -3 4 -14 14 -24
17 -17 18 -16 24 35 4 30 4 61 1 70 -4 11 0 18 12 20 27 6 47 -2 34 -15z m989
-12 c0 -19 -2 -35 -5 -35 -9 0 -65 30 -65 35 0 5 52 34 63 35 4 0 7 -16 7 -35z
m580 9 c0 -23 -22 -41 -45 -36 l-26 5 28 18 c28 19 43 24 43 13z m-921 -155
c17 -44 31 -84 31 -88 0 -4 -21 -17 -46 -30 l-47 -22 8 23 c4 13 10 62 12 111
3 48 6 87 8 87 2 0 17 -36 34 -81z m-1395 26 c4 -15 16 -27 31 -31 29 -7 31
-16 10 -34 -12 -10 -17 -7 -26 14 -12 26 -18 29 -78 41 -33 7 -34 8 -16 21 10
8 31 14 46 14 20 0 28 -6 33 -25z m850 6 c4 -5 3 -17 -1 -27 -6 -16 -7 -16
-20 2 -7 10 -13 21 -13 26 0 11 27 10 34 -1z m-1443 -11 c27 -15 24 -30 -6
-30 -18 0 -25 5 -25 20 0 23 4 24 31 10z m1717 -154 c17 -30 32 -57 32 -61 0
-4 -18 -5 -40 -2 -48 6 -48 4 1 -102 16 -35 28 -66 26 -68 -9 -8 -122 140
-119 155 2 9 5 21 5 25 1 4 -23 19 -53 32 l-55 24 58 1 c63 0 97 12 97 35 0
28 15 15 48 -39z m-411 -21 c48 -3 60 -8 76 -30 25 -34 19 -38 -24 -17 -31 16
-38 16 -83 3 l-48 -15 -28 31 c-37 42 -70 36 -65 -10 2 -18 7 -61 10 -97 l5
-64 -28 45 c-16 24 -43 61 -60 80 -34 39 -33 49 8 49 37 0 45 12 19 26 -21 11
-20 12 20 19 41 7 42 8 25 26 -14 16 -4 13 49 -11 43 -21 86 -33 124 -35z
m1584 42 c-1 -4 -1 -16 -1 -27 0 -11 -4 -20 -10 -20 -5 0 -10 14 -10 31 0 17
5 29 11 27 6 -2 10 -7 10 -11z m-2081 -27 c0 -5 -2 -10 -4 -10 -3 0 -8 5 -11
10 -3 6 -1 10 4 10 6 0 11 -4 11 -10z m702 -26 c10 -9 -3 -42 -18 -48 -10 -4
-14 3 -14 24 0 27 17 40 32 24z m790 -109 c21 -24 22 -35 5 -35 -23 0 -46 24
-53 55 -7 28 -6 29 12 15 10 -8 27 -23 36 -35z m-760 -12 c-20 -40 -21 -80 -2
-118 l19 -37 -22 5 c-12 3 -39 9 -59 12 -29 6 -38 12 -38 27 0 29 35 83 73
112 35 28 43 27 29 -1z m331 -12 c5 -20 -9 -51 -23 -51 -14 0 -30 58 -17 64
24 9 35 6 40 -13z m141 -40 c3 -4 -3 -16 -14 -26 -18 -16 -20 -16 -44 2 -14
10 -26 21 -26 26 0 10 78 9 84 -2z m-796 -98 c18 -4 20 -8 10 -14 -17 -11 -78
-12 -78 -1 0 22 25 27 68 15z"/>
<path d="M6655 7179 c15 -49 32 -84 47 -97 13 -10 22 -9 51 10 20 13 36 26 37
29 0 5 -100 63 -134 78 -4 2 -5 -7 -1 -20z"/>
<path d="M6432 5537 c-6 -7 -7 -18 -3 -26 9 -13 13 -9 24 22 7 20 -6 23 -21 4z"/>
<path d="M6401 5282 c-17 -31 -13 -40 5 -14 9 13 14 26 11 29 -3 2 -10 -4 -16
-15z"/>
<path d="M6685 5570 c-3 -5 -1 -10 4 -10 6 0 11 5 11 10 0 6 -2 10 -4 10 -3 0
-8 -4 -11 -10z"/>
<path d="M6708 4783 c7 -3 16 -2 19 1 4 3 -2 6 -13 5 -11 0 -14 -3 -6 -6z"/>
<path d="M6770 4712 c0 -12 19 -26 26 -19 2 2 -2 10 -11 17 -9 8 -15 8 -15 2z"/>
<path d="M6960 5318 c0 -19 2 -20 10 -8 13 19 13 30 0 30 -5 0 -10 -10 -10
-22z"/>
<path d="M5205 4700 c-4 -6 -16 -8 -28 -5 -21 6 -22 6 -3 -9 11 -9 22 -12 25
-7 3 4 13 10 21 13 10 3 11 6 3 11 -7 4 -15 3 -18 -3z"/>
<path d="M5340 4640 c0 -5 7 -10 16 -10 8 0 12 5 9 10 -3 6 -10 10 -16 10 -5
0 -9 -4 -9 -10z"/>
<path d="M7336 4266 c3 -8 14 -16 26 -19 19 -5 19 -5 2 14 -20 22 -36 25 -28
5z"/>
<path d="M4820 4275 c12 -15 30 -12 30 6 0 5 -10 9 -21 9 -18 0 -19 -2 -9 -15z"/>
<path d="M5650 3990 c0 -23 6 -24 39 -6 l23 13 -23 6 c-36 10 -39 9 -39 -13z"/>
<path d="M6265 3870 c-7 -54 -3 -69 20 -66 25 4 29 15 11 35 -15 16 -15 19 -1
24 12 5 13 11 3 32 -17 37 -25 31 -33 -25z"/>
<path d="M6202 3795 c0 -16 2 -22 5 -12 2 9 2 23 0 30 -3 6 -5 -1 -5 -18z"/>
<path d="M5652 3685 c-9 -30 -9 -41 1 -47 13 -8 21 26 15 65 -3 18 -6 14 -16
-18z"/>
<path d="M5600 3630 c-13 -8 -13 -10 2 -10 9 0 20 5 23 10 8 13 -5 13 -25 0z"/>
<path d="M7800 8152 c0 -10 21 -32 32 -32 16 0 8 19 -12 30 -11 6 -20 7 -20 2z"/>
<path d="M9158 6433 c2 -49 0 -64 -7 -53 -8 11 -11 -23 -11 -121 0 -75 -3
-170 -6 -212 -7 -74 -6 -75 17 -80 23 -4 23 -4 2 -6 -13 0 -23 -2 -24 -3 0 -2
-6 -42 -13 -90 l-12 -87 66 -30 c37 -17 74 -31 83 -31 9 0 19 -4 22 -10 3 -5
12 -10 18 -10 7 0 6 4 -3 10 -13 9 -13 12 2 24 19 14 33 89 46 244 7 79 6 92
-8 92 -12 1 -12 3 3 14 14 11 17 29 17 107 l0 93 -32 -31 c-31 -29 -148 -103
-163 -103 -4 0 12 19 35 42 46 47 63 79 53 104 -5 15 1 16 50 12 l57 -5 0 36
c0 20 -3 59 -6 87 l-6 51 -77 6 c-42 3 -83 8 -91 11 -14 6 -15 -3 -12 -61z"/>
<path d="M3050 6420 c0 -13 -7 -20 -20 -20 -28 0 -34 -49 -26 -233 4 -112 11
-174 24 -209 13 -39 14 -50 4 -57 -10 -6 -9 -29 3 -116 8 -60 15 -112 15 -117
0 -4 7 -8 15 -8 18 0 20 -17 3 -22 -9 -3 -3 -41 20 -139 55 -225 60 -239 89
-239 14 0 48 -13 74 -30 51 -31 56 -29 39 15 -5 14 -12 41 -14 58 -7 57 -51
217 -59 217 -4 0 -15 -16 -24 -35 -13 -27 -14 -40 -5 -59 l11 -25 -42 19 c-23
10 -43 24 -45 30 -6 16 35 56 71 71 18 7 33 13 35 14 1 1 -7 46 -18 100 -31
150 -50 323 -57 513 l-6 173 -23 -28 c-28 -33 -37 -25 -55 51 -10 43 -10 51 5
61 20 15 20 21 1 29 -10 4 -15 -1 -15 -14z"/>
<path d="M2330 6282 c0 -4 5 -13 11 -19 7 -7 13 -25 14 -40 1 -15 3 -33 3 -39
1 -7 23 -15 49 -19 l48 -7 -33 -29 c-33 -30 -67 -38 -74 -18 -3 8 -16 10 -40
5 -33 -6 -36 -10 -42 -49 -7 -43 -6 -45 40 -73 18 -10 18 -12 0 -38 -9 -15
-16 -30 -13 -32 3 -3 25 5 49 17 58 28 108 20 151 -23 29 -29 32 -29 73 -18
48 14 101 55 127 98 l17 30 -75 7 c-79 8 -87 15 -57 50 27 32 46 44 102 64
l52 18 -45 32 c-68 47 -132 40 -186 -20 l-28 -30 -6 39 c-5 31 -15 45 -44 64
-40 27 -93 44 -93 30z m221 -132 c26 -15 24 -29 -7 -41 -31 -11 -30 -12 -39
24 -8 30 9 36 46 17z"/>
<path d="M10174 6271 c-46 -21 -74 -54 -74 -88 0 -29 -11 -29 -36 -2 -50 55
-115 63 -180 22 -24 -16 -44 -30 -44 -33 0 -3 20 -12 44 -19 47 -14 126 -74
126 -96 0 -9 -24 -15 -75 -20 -41 -4 -75 -11 -75 -16 0 -5 21 -31 48 -58 33
-34 60 -53 91 -61 40 -11 45 -10 70 13 56 52 98 59 161 27 51 -26 53 -26 34
12 -17 33 -15 39 34 67 21 12 -2 87 -28 94 -14 4 -20 0 -20 -11 0 -13 -4 -11
-20 6 -24 26 -26 84 -5 135 8 20 15 39 15 42 0 10 -25 5 -66 -14z"/>
<path d="M2103 6137 c-24 -11 -43 -25 -43 -29 0 -38 100 -180 160 -228 l42
-33 -31 61 c-32 63 -71 190 -71 229 0 28 -3 28 -57 0z"/>
<path d="M10410 6146 c0 -9 7 -16 16 -16 17 0 14 22 -4 28 -7 2 -12 -3 -12
-12z"/>
<path d="M10467 6087 c4 -46 3 -50 -10 -34 -17 20 -40 22 -55 5 -6 -7 -22 -44
-37 -83 -14 -38 -33 -81 -41 -93 -28 -43 -8 -33 49 26 60 60 92 104 119 164
17 36 16 37 -6 51 l-23 15 4 -51z"/>
<path d="M7674 6055 c-16 -13 -17 -16 -4 -25 11 -7 18 -5 28 7 24 33 10 44
-24 18z"/>
<path d="M2352 5837 c-18 -6 -46 -22 -61 -36 l-27 -26 -44 23 c-79 39 -164 20
-227 -52 -40 -44 -47 -69 -41 -146 4 -50 2 -60 -12 -60 -25 0 -86 -47 -109
-83 -36 -58 -38 -117 -7 -182 31 -62 82 -99 151 -110 39 -7 41 -8 37 -40 -9
-73 43 -156 118 -190 38 -17 40 -20 40 -61 0 -80 40 -140 115 -175 133 -62
279 51 262 204 l-6 52 44 27 c70 42 98 115 81 213 l-6 40 49 21 c142 62 140
273 -2 340 -29 13 -62 24 -74 24 -20 0 -23 5 -23 39 0 31 -9 50 -51 102 -28
35 -62 69 -77 76 -33 15 -85 15 -130 0z m97 -43 c19 -15 31 -35 31 -49 0 -38
-39 -75 -86 -82 -33 -4 -45 -1 -72 22 -35 30 -40 59 -16 93 33 47 98 54 143
16z m-255 -39 c30 -28 32 -44 11 -85 -17 -32 -72 -55 -107 -45 -70 21 -88 86
-37 129 41 35 96 35 133 1z m286 -197 c19 -47 23 -51 30 -32 32 82 180 65 180
-20 0 -37 -21 -60 -67 -76 -39 -14 -102 9 -110 41 -5 19 -11 16 -59 -32 l-53
-52 20 62 c10 35 19 85 19 112 0 27 4 49 9 49 4 0 18 -24 31 -52z m-104 -31
c73 -63 -25 -169 -115 -123 -52 28 -55 103 -3 130 40 22 87 20 118 -7z m-285
-36 c35 -36 37 -64 5 -96 -78 -78 -211 -4 -150 83 34 50 102 55 145 13z m699
-6 c16 -19 5 -35 -24 -35 -17 0 -25 7 -28 25 -4 21 -1 25 17 25 12 0 28 -7 35
-15z m-245 -220 c28 -27 31 -46 13 -78 -18 -35 -40 -46 -86 -47 -81 0 -119 71
-66 124 37 36 104 37 139 1z m-250 -30 c14 -13 25 -33 25 -44 0 -14 10 -21 36
-28 20 -4 36 -12 36 -18 0 -13 -42 -43 -67 -47 -16 -2 -19 2 -17 21 2 19 0 22
-12 12 -60 -50 -166 -16 -166 54 0 9 13 30 29 46 39 39 100 41 136 4z m114
-240 c51 -26 56 -81 10 -119 -50 -42 -120 -30 -150 25 -16 30 7 78 45 95 40
17 61 17 95 -1z"/>
<path d="M10124 5831 c11 -12 25 -16 41 -13 62 11 125 -50 105 -102 -21 -56
-104 -72 -151 -30 -11 10 -19 12 -19 6 0 -6 13 -18 29 -26 34 -18 91 -81 91
-101 0 -10 11 -15 36 -15 43 0 94 -45 94 -82 0 -31 -37 -66 -77 -74 -54 -11
-113 33 -113 84 0 11 -7 23 -17 26 -26 10 -79 -12 -91 -38 -7 -15 -28 -30 -59
-40 l-48 -17 -37 40 c-21 22 -38 47 -38 56 0 9 13 30 29 46 34 34 72 38 124
13 32 -15 38 -15 91 2 l57 19 -36 40 c-37 41 -38 40 -19 -25 8 -30 -37 -31
-70 -2 -15 14 -17 26 -11 77 3 33 9 73 12 90 l6 29 -34 -21 c-46 -29 -64 -64
-42 -80 15 -12 15 -13 0 -19 -10 -3 -17 -16 -17 -28 0 -19 -8 -24 -47 -32
l-48 -9 -3 -57 c-3 -64 -11 -69 -62 -43 -28 14 -28 14 -39 -17 -28 -78 1 -168
70 -217 48 -35 69 -39 70 -13 0 11 5 7 14 -13 20 -43 19 -67 -2 -63 -13 2 -19
-5 -21 -24 -8 -68 45 -162 106 -187 27 -11 28 -14 24 -71 -2 -33 -2 -71 2 -84
15 -60 113 -135 176 -136 108 0 199 89 200 197 0 40 2 43 44 61 24 11 55 35
69 53 30 41 50 109 41 144 -5 20 -2 25 12 25 36 0 94 21 119 43 l26 22 -50 37
c-56 41 -61 38 -61 -38 0 -26 -5 -44 -11 -44 -9 0 -10 22 -6 78 7 95 11 106
43 121 33 15 34 15 34 -14 0 -28 31 -61 66 -68 31 -6 34 -1 33 47 -1 55 -11
81 -29 81 -10 0 -15 10 -15 32 0 35 -32 67 -78 78 -26 7 -27 9 -21 60 10 85
-28 165 -97 201 -48 24 -125 24 -175 -1 -43 -22 -44 -22 -61 -2 -26 29 -92 57
-137 57 -37 0 -38 -1 -22 -19z m387 -80 c16 -16 29 -38 29 -48 0 -55 -74 -94
-133 -69 -60 25 -75 79 -32 121 36 37 97 35 136 -4z m85 -250 c81 -49 27 -155
-70 -137 -59 11 -95 78 -63 118 32 41 85 48 133 19z m-625 -217 c10 -13 10
-17 -2 -25 -18 -11 -49 -12 -49 0 0 5 -3 16 -6 25 -8 22 39 22 57 0z m177 -10
c35 -24 45 -59 27 -94 -18 -34 -49 -45 -107 -37 -34 5 -41 2 -45 -14 -7 -25
-19 -24 -26 3 -10 37 5 112 26 136 25 27 91 30 125 6z m256 -35 c48 -38 31
-111 -30 -128 -63 -17 -124 19 -124 75 0 42 38 74 90 74 23 0 48 -8 64 -21z
m-34 -160 c0 -17 -3 -19 -14 -10 -10 8 -16 9 -21 1 -3 -6 -11 -8 -16 -4 -5 3
-7 10 -3 15 3 5 9 7 13 5 4 -3 13 -1 21 5 20 12 20 12 20 -12z m-10 -65 c0
-27 -14 -25 -30 7 -9 16 -7 19 10 19 15 0 20 -7 20 -26z m-84 -35 c37 -35 32
-81 -11 -115 l-35 -27 -48 19 c-26 11 -49 20 -53 22 -3 1 -15 -16 -28 -38 -13
-23 -25 -39 -28 -37 -7 8 27 128 44 154 36 55 112 66 159 22z"/>
<path d="M9086 5684 c-8 -49 -58 -253 -72 -288 -6 -17 -4 -18 19 -12 15 3 27
4 27 2 0 -20 -29 -60 -50 -71 -18 -9 -34 -32 -47 -67 -12 -29 -24 -60 -28 -69
-4 -11 0 -18 15 -22 31 -8 49 1 66 34 8 16 40 49 71 74 58 45 81 52 47 14
l-19 -21 35 7 c42 9 47 13 55 45 5 22 1 27 -38 43 -27 11 -49 28 -56 43 -15
34 -14 45 4 38 26 -10 45 16 45 62 0 51 10 55 39 18 26 -33 26 -54 1 -104 -25
-49 -25 -52 2 -48 14 2 25 13 30 33 20 71 67 279 63 283 -2 2 -36 -2 -77 -8
-66 -11 -73 -11 -83 5 -5 10 -17 27 -26 38 -16 20 -16 19 -23 -29z"/>
<path d="M9421 5361 c-10 -7 -11 -16 -4 -37 l10 -29 7 33 c9 38 6 44 -13 33z"/>
<path d="M9085 5241 c-2 -2 5 -12 16 -24 29 -31 24 -37 -32 -37 -49 0 -50 -1
-65 -37 -33 -84 -26 -79 -59 -50 l-30 25 -77 -155 c-43 -85 -78 -162 -78 -170
0 -8 -10 -24 -23 -36 -36 -34 -87 -113 -87 -135 0 -11 9 -30 19 -44 20 -24 20
-25 0 -57 -10 -17 -19 -33 -19 -35 0 -2 14 -9 31 -15 17 -6 28 -15 24 -20 -9
-16 34 -34 50 -21 23 19 170 249 225 353 46 86 49 97 32 97 -11 0 -22 9 -25
20 -6 24 15 27 34 4 11 -14 16 -9 40 38 15 29 26 60 23 70 -3 9 0 20 7 23 8 6
7 10 -2 16 -11 7 -9 10 8 15 15 4 28 21 39 53 9 25 25 65 34 87 l18 42 -50 -2
c-27 0 -51 -3 -53 -5z m-25 -188 c-1 -5 -7 -19 -15 -33 l-14 -25 -1 26 c0 14
3 29 7 32 9 9 23 9 23 0z m-80 -190 c0 -33 -2 -36 -15 -23 -8 9 -12 24 -9 38
10 35 24 26 24 -15z m-134 -226 c-3 -14 -13 -28 -22 -31 -12 -5 -14 -1 -8 17
14 48 42 60 30 14z"/>
<path d="M3190 5148 c28 -81 31 -88 41 -82 5 3 9 -9 9 -26 0 -38 14 -65 52
-104 31 -33 35 -46 13 -46 -11 0 0 -30 40 -110 44 -88 60 -111 81 -116 32 -8
45 5 53 51 l6 37 25 -20 c21 -16 14 3 -41 113 -36 73 -74 154 -84 181 -10 27
-20 51 -22 54 -2 2 -15 -9 -29 -25 l-25 -30 20 42 c12 23 18 49 15 57 -5 13
-8 14 -28 1 -21 -14 -24 -13 -34 10 -13 27 -67 65 -94 65 -16 0 -16 -4 2 -52z"/>
<path d="M8430 5133 c0 -11 61 -45 68 -38 9 9 -30 45 -50 45 -10 0 -18 -3 -18
-7z"/>
<path d="M9217 5113 c-12 -12 -7 -33 8 -33 17 0 19 9 7 28 -5 7 -11 9 -15 5z"/>
<path d="M8626 4841 c-4 -7 -5 -15 -2 -18 9 -9 19 4 14 18 -4 11 -6 11 -12 0z"/>
<path d="M2716 4740 c15 -87 1 -125 -62 -162 -30 -18 -34 -25 -34 -61 0 -23 9
-60 20 -82 18 -39 53 -85 63 -85 3 0 18 32 33 71 l28 72 27 -33 c26 -31 37
-65 41 -137 1 -18 5 -33 8 -33 3 0 24 17 48 39 38 35 42 43 42 87 0 31 -7 61
-20 82 -11 18 -20 35 -20 38 0 2 18 4 39 2 42 -2 75 17 67 39 -3 8 2 13 13 13
15 0 51 38 51 53 0 3 -29 2 -63 0 -88 -7 -111 6 -103 58 6 37 5 39 -35 60
l-41 21 -27 -26 -27 -26 -28 28 -28 27 8 -45z"/>
<path d="M9828 4753 c-20 -19 -30 -24 -40 -16 -21 17 -78 24 -100 12 -17 -9
-19 -17 -14 -50 6 -36 4 -40 -20 -49 -14 -6 -45 -10 -70 -10 -42 0 -44 -1 -44
-30 0 -39 55 -79 101 -72 l32 5 -39 33 -39 33 45 0 c25 0 68 -9 95 -19 47 -17
48 -19 18 -19 -42 -1 -63 -10 -63 -27 0 -8 -5 -14 -10 -14 -6 0 -20 -19 -30
-42 l-19 -43 41 -42 c43 -44 58 -47 58 -10 0 12 14 35 30 51 17 16 30 33 30
38 0 4 4 8 8 8 5 0 19 -29 31 -65 13 -36 27 -67 31 -70 13 -8 69 66 80 105 19
69 13 94 -27 121 -20 13 -46 39 -56 57 -17 29 -18 40 -9 85 6 29 9 53 8 54 -1
1 -14 -9 -28 -24z"/>
<path d="M8600 4730 c0 -10 -6 -20 -12 -23 -7 -2 -9 -8 -5 -13 4 -5 12 -2 16
5 6 10 13 10 29 2 16 -9 21 -7 25 9 4 14 -2 21 -24 29 -25 9 -29 8 -29 -9z"/>
<path d="M3540 4687 c0 -11 -9 -31 -20 -47 -21 -29 -18 -40 10 -40 10 0 23 -7
30 -15 7 -8 22 -15 34 -15 16 0 18 3 7 9 -7 5 -9 10 -4 12 5 2 -5 29 -24 59
-19 32 -33 47 -33 37z"/>
<path d="M8592 4660 c0 -14 2 -19 5 -12 2 6 2 18 0 25 -3 6 -5 1 -5 -13z"/>
<path d="M3455 4580 c44 -86 177 -277 276 -397 51 -63 65 -74 99 -79 39 -6 40
-8 24 -25 -15 -17 -15 -20 4 -46 26 -37 198 -203 239 -231 l31 -22 11 30 c15
45 24 36 19 -18 l-5 -47 99 -79 c124 -98 352 -250 356 -237 5 15 49 -8 67 -36
9 -13 64 -47 123 -77 308 -154 617 -255 952 -310 183 -30 391 -48 404 -36 12
11 -20 96 -45 121 -14 14 -34 19 -78 19 l-60 0 15 -35 c16 -39 9 -44 -40 -25
-22 8 -25 14 -20 39 6 29 6 29 -52 36 -104 12 -345 63 -474 100 -421 123 -851
358 -1182 649 -48 42 -92 76 -97 76 -5 0 -17 -7 -26 -16 -13 -13 -18 -14 -31
-3 -13 11 -18 10 -25 -4 -6 -9 -22 -17 -36 -17 -21 0 -24 2 -13 15 7 8 19 15
26 15 21 0 17 15 -8 34 -22 16 -21 16 37 11 l60 -7 -65 67 c-36 36 -76 68 -89
72 -14 3 -29 19 -38 41 -19 46 -119 169 -144 177 -22 7 -46 45 -29 45 6 0 3
11 -6 25 -9 14 -23 25 -30 25 -8 0 -14 10 -14 21 0 18 -2 20 -16 8 -13 -11
-14 -15 -2 -23 8 -6 19 -33 26 -61 6 -27 15 -61 18 -74 l7 -25 -31 23 c-50 35
-62 68 -62 171 l0 90 -62 1 c-35 0 -57 3 -50 6 20 8 14 20 -15 26 -16 3 -36 9
-47 13 -17 7 -17 6 -1 -26z m1383 -1169 c51 -38 64 -58 22 -36 -18 9 -43 15
-56 12 -21 -4 -24 0 -24 24 0 36 7 36 58 0z"/>
<path d="M8598 4575 c-6 -14 -16 -25 -21 -25 -6 0 -2 -9 8 -20 25 -28 35 -25
35 9 0 25 3 28 23 23 22 -5 22 -5 3 16 -25 28 -34 28 -48 -3z"/>
<path d="M2282 4539 l-33 -10 48 -60 c26 -33 56 -71 66 -84 l18 -24 -36 -7
c-51 -9 -114 1 -180 31 -32 14 -60 23 -62 21 -10 -10 12 -111 31 -139 32 -48
99 -79 164 -75 28 2 52 2 52 0 0 -1 -12 -21 -26 -44 -22 -35 -26 -49 -21 -91
4 -27 18 -69 33 -94 l27 -46 32 69 c36 78 86 129 113 115 9 -5 28 -20 41 -34
l23 -26 50 31 49 30 -6 52 -7 52 49 15 48 15 -67 23 c-45 15 -76 33 -92 52
-30 36 -50 102 -42 140 4 23 0 32 -24 49 -64 46 -167 62 -248 39z m296 -349
c34 -7 59 -16 57 -20 -3 -5 -28 -16 -56 -25 l-51 -17 -54 53 c-30 29 -54 56
-54 60 0 4 22 -3 48 -16 27 -13 76 -29 110 -35z"/>
<path d="M10102 4535 c-18 -8 -47 -24 -63 -35 -25 -19 -29 -28 -29 -70 0 -44
3 -51 28 -64 23 -12 25 -15 10 -21 -10 -4 -24 -5 -32 -2 -9 4 -25 -8 -41 -28
-17 -23 -39 -38 -67 -45 -22 -6 -52 -16 -67 -22 l-26 -10 39 -14 c21 -8 42
-11 47 -8 12 7 11 -23 0 -63 -11 -38 -2 -54 54 -88 l40 -24 35 34 35 35 32
-20 c22 -13 45 -44 71 -95 l38 -77 26 49 c41 77 45 124 13 178 l-26 45 52 0
c62 0 130 30 158 69 15 21 41 117 41 152 0 5 -22 -3 -49 -16 -26 -14 -71 -30
-98 -37 -43 -12 -49 -16 -39 -30 5 -9 7 -20 4 -24 -11 -10 -28 6 -28 25 0 13
-10 21 -35 25 -19 4 -35 9 -35 12 0 3 27 39 61 80 33 41 57 78 54 84 -11 18
-43 10 -49 -12 -6 -23 -7 -23 -22 5 -12 23 -21 27 -57 27 -23 -1 -57 -7 -75
-15z m84 -54 c20 4 25 -6 16 -30 -5 -12 -75 -82 -78 -78 -1 1 4 29 11 62 7 33
14 62 14 65 1 3 5 -1 10 -8 4 -8 17 -12 27 -11z m-125 -264 c-8 -8 -11 -5 -11
9 0 27 14 41 18 19 2 -9 -1 -22 -7 -28z"/>
<path d="M9640 4371 c0 -6 4 -13 10 -16 6 -3 7 1 4 9 -7 18 -14 21 -14 7z"/>
<path d="M2971 4144 c-29 -8 -64 -22 -78 -31 -55 -36 -84 -153 -48 -193 16
-17 15 -18 -2 -22 -10 -2 -29 2 -43 9 -14 7 -33 13 -42 13 -9 0 -19 4 -22 9
-12 18 -105 -12 -153 -49 -22 -17 -22 -17 47 -44 45 -18 80 -40 100 -62 l30
-35 -31 -39 -31 -39 21 -33 c44 -69 43 -68 92 -54 42 13 45 12 66 -10 12 -13
23 -31 25 -41 2 -10 10 7 17 37 8 30 18 61 24 68 15 20 4 23 -46 13 -44 -8
-48 -7 -53 14 -15 61 34 80 131 50 50 -15 72 -12 57 8 -5 7 -21 35 -37 62 -25
44 -25 48 -6 31 12 -11 34 -39 49 -63 24 -40 30 -43 62 -41 31 3 38 9 63 57
29 59 36 134 17 203 -13 46 -24 43 -104 -29 -33 -29 -63 -53 -67 -53 -12 0
-21 38 -21 89 1 41 17 100 47 174 8 20 7 20 -64 1z m99 -379 c0 -13 -4 -27
-10 -30 -6 -4 -10 8 -10 30 0 22 4 34 10 30 6 -3 10 -17 10 -30z"/>
<path d="M9534 4142 c3 -9 14 -42 25 -72 27 -74 27 -190 -1 -190 -5 0 -42 29
-81 65 -48 44 -73 61 -78 52 -19 -35 -29 -126 -19 -172 22 -98 82 -163 97
-105 5 18 7 18 35 4 38 -20 60 -12 103 38 l35 41 16 -38 c20 -49 12 -81 -27
-100 -22 -12 -28 -20 -20 -28 5 -7 18 -44 29 -82 l19 -69 17 52 c10 28 18 52
19 52 1 0 23 -7 49 -14 51 -16 50 -17 97 51 l22 33 -32 40 c-30 38 -31 40 -16
64 16 23 127 86 153 86 57 0 -22 63 -101 80 -45 10 -53 9 -96 -14 l-46 -26 5
50 c3 32 0 55 -8 65 -7 8 -10 22 -6 30 4 10 -8 31 -32 55 -30 32 -49 43 -100
54 -59 14 -64 13 -58 -2z m387 -263 c25 -13 14 -32 -14 -23 -28 8 -30 11 -22
23 8 14 11 14 36 0z m-351 -60 c0 -34 -2 -39 -14 -30 -11 9 -12 18 -3 41 6 17
13 30 14 30 2 0 3 -19 3 -41z"/>
<path d="M8446 3964 c-86 -83 -96 -96 -86 -114 14 -26 59 -26 93 0 31 25 33
25 40 -1 6 -21 7 -21 44 9 69 55 90 84 96 133 l6 46 -47 10 -48 9 -98 -92z"/>
<path d="M8255 3794 c-44 -36 -124 -95 -177 -131 -54 -37 -98 -70 -98 -75 0
-4 -7 -8 -15 -8 -9 0 -12 -6 -9 -15 4 -8 2 -15 -4 -15 -6 0 -12 4 -14 10 -1 5
-28 -6 -58 -25 -30 -19 -59 -37 -65 -39 -21 -10 30 -35 83 -42 l56 -7 -23 -18
c-32 -26 -82 -24 -141 6 l-49 25 -7 -45 c-8 -53 -24 -60 -24 -10 l0 35 -42
-21 c-159 -81 -456 -188 -653 -234 -135 -32 -318 -61 -469 -75 -66 -6 -121
-12 -123 -14 -2 -1 10 -27 26 -56 16 -30 27 -58 25 -62 -18 -28 335 17 592 77
64 14 72 19 87 50 15 31 21 35 56 35 22 0 46 -6 53 -14 11 -11 26 -9 93 14
356 122 684 306 1012 567 12 10 11 17 -13 52 -20 31 -25 48 -21 71 4 16 5 30
4 30 -1 0 -38 -30 -82 -66z m-805 -514 c-10 -18 -60 -30 -60 -14 0 12 34 33
53 34 15 0 16 -3 7 -20z"/>
<path d="M8380 3763 c1 -25 16 -30 39 -12 l23 19 -31 0 c-17 0 -31 -3 -31 -7z"/>
<path d="M3120 3634 c-8 -3 -23 -18 -32 -34 -17 -30 -38 -40 -38 -18 0 6 -9 3
-20 -7 -28 -25 -26 -30 21 -44 23 -7 47 -15 54 -17 9 -4 15 10 20 45 5 36 13
56 28 66 20 14 21 15 2 14 -11 -1 -27 -3 -35 -5z"/>
<path d="M3160 3574 c-28 -55 -31 -67 -19 -75 11 -8 9 -14 -14 -34 -15 -13
-45 -29 -66 -35 -33 -9 -39 -15 -44 -43 -6 -39 5 -54 44 -62 41 -9 84 2 119
32 l30 25 0 -37 c0 -20 5 -45 11 -56 9 -18 85 -79 98 -79 3 0 6 37 6 82 l0 83
43 1 c41 1 45 3 62 40 17 39 17 39 -7 66 l-25 27 22 31 22 31 -29 -7 c-15 -4
-39 -11 -52 -16 -32 -12 -101 22 -124 62 -10 16 -24 30 -31 30 -7 0 -28 -30
-46 -66z"/>
<path d="M9340 3631 c0 -5 -12 -23 -26 -40 -34 -41 -76 -52 -134 -35 -24 7
-46 11 -49 9 -2 -3 6 -16 19 -30 l24 -25 -28 -29 -28 -29 20 -39 c19 -37 22
-38 60 -35 36 3 41 1 49 -23 l9 -27 23 47 c13 25 25 45 27 42 7 -7 -27 -111
-47 -143 -10 -17 -19 -39 -19 -48 0 -15 4 -14 39 4 49 25 81 68 81 111 0 26 3
30 12 21 16 -16 31 -15 25 2 -3 7 0 51 6 97 6 46 13 74 15 61 2 -13 9 -22 15
-19 7 2 38 13 70 23 l57 18 -32 34 c-18 19 -47 41 -65 48 -36 16 -123 19 -123
5z"/>
<path d="M10818 3540 c-45 -74 -48 -84 -48 -150 0 -70 0 -70 -37 -94 -21 -13
-39 -23 -41 -21 -1 1 9 27 23 59 38 86 30 87 -25 2 -184 -282 -467 -625 -720
-870 l-112 -109 21 -20 20 -20 -30 -28 c-23 -22 -29 -35 -29 -70 l0 -42 22 19
c84 71 272 252 350 336 90 97 92 101 60 96 -37 -5 -40 4 -18 57 16 38 47 46
87 24 36 -19 52 6 47 73 -2 32 -3 58 -2 58 2 0 8 -19 15 -42 l11 -42 29 34
c112 132 361 479 433 602 l27 47 -15 68 c-9 37 -17 78 -18 91 -2 17 -14 4 -50
-58z m-233 -489 c-8 -17 -18 -31 -20 -31 -3 0 -5 18 -5 39 0 30 4 40 18 43 23
5 26 -15 7 -51z"/>
<path d="M3835 3455 c-31 -30 -32 -65 -4 -122 19 -39 20 -51 11 -150 l-10
-108 42 -49 41 -50 -40 27 c-21 15 -42 23 -46 19 -7 -8 -70 -646 -69 -705 0
-21 6 -50 14 -65 15 -30 82 -72 114 -72 24 0 35 25 23 49 -9 16 -4 17 49 13
68 -5 46 -19 259 166 99 85 149 122 166 122 24 0 25 -3 25 -55 0 -60 1 -60 80
-56 36 2 6 -15 -42 -23 -43 -8 -44 -12 -51 -118 l-5 -67 39 -15 c22 -9 42 -16
44 -16 3 0 5 18 5 40 0 51 16 51 31 1 21 -71 0 -100 -72 -101 -17 0 -29 8 -36
23 -9 19 -12 12 -18 -46 -12 -113 -3 -157 41 -194 67 -59 148 -42 255 54 30
27 167 150 304 273 354 319 341 308 402 326 147 43 120 153 -60 243 -107 54
-193 66 -225 30 -29 -30 -28 -65 3 -105 14 -18 25 -42 25 -53 0 -25 -83 -123
-157 -184 -110 -90 -123 -80 -122 87 0 140 10 214 30 227 8 5 31 14 51 19 40
11 68 42 68 74 0 37 -109 127 -226 188 -133 69 -217 98 -284 98 -85 0 -114
-54 -68 -128 17 -28 22 -51 21 -105 0 -67 -1 -69 -44 -113 -48 -50 -125 -104
-146 -104 -32 0 -36 45 -19 185 10 75 22 150 28 165 5 16 29 45 54 65 37 31
44 42 44 72 0 30 -8 44 -46 81 -54 51 -65 47 -72 -27 -5 -55 -18 -63 -45 -33
-21 24 -21 37 2 89 17 37 18 42 4 47 -9 4 -32 4 -52 1 -36 -6 -36 -6 -11 9
l25 14 -67 31 c-133 60 -221 68 -263 26z m118 -141 c24 -20 38 -25 63 -21 l32
5 -15 -35 -14 -36 31 7 32 6 -26 -31 c-14 -16 -31 -48 -37 -69 -14 -45 -22
-44 -49 10 -25 49 -25 56 1 63 l20 6 -20 20 c-22 22 -65 101 -55 101 3 0 20
-12 37 -26z m521 -209 c3 -9 0 -15 -8 -15 -7 0 -19 7 -26 15 -10 12 -9 15 8
15 11 0 22 -7 26 -15z m-418 -60 c16 -13 17 -16 4 -25 -21 -14 -34 -7 -38 18
-4 26 7 28 34 7z m-189 -251 c22 -6 40 -44 20 -44 -14 0 -77 37 -77 45 0 7 30
6 57 -1z m378 -240 c73 -24 74 -32 3 -23 -122 16 -127 18 -153 57 -14 20 -25
40 -25 43 0 4 28 -8 63 -27 34 -18 85 -41 112 -50z m-360 -46 c9 -21 16 -23
98 -22 48 0 87 -1 87 -3 0 -2 -5 -13 -10 -24 -15 -27 -63 -49 -107 -49 l-38 1
30 13 30 13 -39 8 c-31 6 -42 4 -52 -9 -8 -12 -19 -15 -38 -10 l-26 6 6 -61
c5 -39 3 -61 -3 -61 -14 0 -33 77 -33 129 0 35 5 43 37 66 46 30 46 30 58 3z
m1040 -218 c20 -1 20 -1 1 -15 -18 -13 -76 -21 -76 -11 0 22 16 37 34 32 11
-3 30 -6 41 -6z"/>
<path d="M9420 3476 c0 -17 22 -46 31 -41 14 9 11 2 -17 -49 l-26 -46 27 -10
c48 -18 64 -12 94 37 l29 47 -49 16 c-27 9 -58 25 -69 35 -11 10 -20 15 -20
11z"/>
<path d="M8398 3443 c-9 -10 -13 -24 -10 -32 5 -16 -20 -34 -29 -20 -3 5 -23
-4 -44 -21 -22 -17 -72 -52 -113 -77 -58 -36 -71 -49 -67 -64 7 -21 -5 -25
-22 -8 -8 8 -35 -3 -100 -41 -48 -30 -89 -54 -91 -55 -1 -1 5 -21 13 -45 8
-23 15 -44 15 -47 0 -2 -17 8 -37 22 -21 14 -44 25 -51 25 -24 0 -200 -110
-227 -142 -20 -24 -25 -39 -21 -60 l6 -28 -30 21 c-39 29 -119 37 -152 15 -16
-10 -43 -15 -74 -14 -64 2 -108 -8 -165 -39 -57 -31 -74 -62 -59 -109 14 -42
28 -44 32 -5 l3 29 65 -59 c47 -42 61 -61 52 -67 -10 -7 -8 -26 8 -93 23 -99
24 -119 7 -143 -20 -27 -58 -15 -183 59 -60 36 -116 65 -125 65 -9 0 -19 6
-22 13 -6 16 -276 179 -334 202 -40 16 -49 16 -137 1 -150 -26 -263 -74 -197
-84 19 -3 33 -27 51 -90 7 -26 6 -33 -4 -29 -7 3 -17 -3 -23 -12 -9 -15 -6
-21 17 -34 16 -10 37 -36 49 -60 44 -92 120 -470 123 -613 1 -73 1 -74 -40
-119 -45 -48 -50 -70 -27 -114 19 -37 60 -51 154 -51 146 0 288 53 319 117 23
48 8 83 -46 109 -23 11 -52 29 -63 41 -45 45 -86 278 -56 318 13 17 20 18 54
9 21 -5 189 -103 373 -217 185 -114 350 -209 367 -213 27 -5 37 -1 61 23 46
46 56 163 13 163 -9 0 -27 13 -39 30 l-23 30 36 -17 c19 -9 37 -14 40 -11 3 3
-20 144 -51 314 -30 170 -56 344 -57 386 l-2 77 49 50 c41 42 48 54 44 80 -4
29 -3 30 13 15 13 -12 28 -14 63 -9 73 11 100 -12 225 -200 116 -172 261 -448
261 -493 0 -15 -9 -44 -20 -65 -25 -46 -25 -79 -2 -100 41 -37 35 -40 484 228
233 139 268 163 274 188 3 15 12 31 20 34 26 10 28 -6 4 -32 -22 -23 -17 -22
59 12 73 34 83 41 92 73 6 19 9 58 7 85 -3 45 -5 50 -25 47 -13 -2 -23 2 -23
7 0 6 6 11 14 11 25 0 28 18 12 73 -26 85 -25 84 -102 38 -37 -23 -72 -41 -77
-41 -5 0 9 20 32 45 49 53 58 105 18 105 -55 0 -90 -65 -70 -127 18 -53 -20
-155 -79 -209 -67 -63 -190 -134 -231 -134 -28 0 -72 44 -122 123 -53 85 -68
123 -55 147 15 28 66 52 103 49 24 -2 40 5 62 25 l30 28 3 -23 c3 -15 -4 -30
-19 -41 l-22 -19 28 -29 c34 -36 67 -38 95 -8 26 28 26 78 0 154 -42 122 -155
275 -214 290 -39 9 -75 -4 -88 -32 -9 -20 -8 -35 6 -77 25 -73 19 -106 -23
-134 -45 -31 -78 -38 -96 -23 -27 23 -116 179 -122 215 -5 30 -1 39 26 64 18
17 57 44 87 61 29 17 61 44 71 61 20 34 34 38 26 8 -5 -18 -3 -19 23 -12 50
13 107 7 152 -16 30 -15 52 -20 73 -16 33 8 69 48 69 79 -1 32 -34 98 -70 139
-30 34 -36 37 -69 31 -34 -7 -35 -6 -21 11 13 15 12 19 -5 31 -27 20 -89 18
-107 -3z m-290 -475 c28 -30 39 -64 48 -137 7 -61 11 -69 30 -52 5 5 20 12 34
16 l25 7 -24 -25 c-13 -14 -36 -30 -52 -36 -25 -9 -31 -6 -54 21 -18 22 -23
34 -16 41 12 12 14 66 3 83 -4 7 -18 14 -32 15 -15 3 -26 12 -28 23 -3 16 0
18 22 12 24 -6 25 -5 16 20 -6 14 -10 27 -10 30 0 11 19 2 38 -18z m270 -226
c14 -22 14 -23 -7 -29 -29 -7 -51 -52 -51 -103 0 -44 -16 -53 -44 -24 -21 21
-20 50 4 103 11 24 18 46 16 48 -2 3 -21 0 -43 -6 -48 -14 -60 -14 -47 -1 12
12 114 40 138 37 10 -1 26 -12 34 -25z m-282 -98 c23 6 25 5 18 -16 -21 -69
-23 -71 -47 -56 -12 8 -35 38 -51 67 l-28 53 41 -27 c30 -20 47 -26 67 -21z
m-1541 -101 c71 -25 85 -39 85 -86 0 -43 0 -43 -34 -39 -29 3 -37 -1 -59 -30
-14 -18 -32 -51 -41 -72 -15 -35 -18 -38 -32 -25 -8 9 -17 32 -21 52 -5 34 -2
40 56 100 l61 64 -60 24 c-33 13 -60 27 -60 31 0 9 51 0 105 -19z m1583 -156
c10 -8 10 -12 1 -18 -18 -11 -39 1 -39 23 0 19 8 18 38 -5z m-938 -1 c0 -9
-30 -14 -35 -6 -4 6 3 10 14 10 12 0 21 -2 21 -4z m97 -38 l51 -20 4 -54 c2
-40 0 -53 -9 -49 -49 20 -49 20 -30 -2 22 -25 22 -33 -3 -33 -16 0 -20 7 -20
35 0 27 -9 44 -45 82 -25 25 -45 48 -45 49 0 2 8 0 18 -3 15 -6 16 -5 2 12
-14 17 -13 18 5 11 11 -4 43 -17 72 -28z m138 -43 l0 -56 -27 33 -28 33 28 22
c15 13 27 23 27 23 0 0 0 -25 0 -55z m-282 -76 c30 -16 37 -28 37 -71 0 -37 0
-37 32 -27 41 11 44 11 33 0 -6 -6 -29 -14 -53 -19 -36 -8 -46 -7 -65 9 -12
10 -17 18 -11 19 20 0 25 31 9 63 -21 43 -20 45 18 26z m253 -60 c5 -8 1 -8
-14 0 -28 15 -32 14 -32 -6 -1 -16 -2 -16 -11 1 -21 36 35 41 57 5z m48 -164
c3 -9 0 -15 -8 -15 -7 0 -19 7 -26 15 -10 12 -9 15 8 15 11 0 22 -7 26 -15z
m52 -93 c31 -39 39 -72 19 -72 -37 0 -55 20 -55 60 0 47 7 49 36 12z m52 -148
c-9 -9 -21 -13 -27 -9 -16 10 -3 25 22 25 20 0 20 -1 5 -16z"/>
<path d="M6068 3183 c7 -3 16 -2 19 1 4 3 -2 6 -13 5 -11 0 -14 -3 -6 -6z"/>
<path d="M6200 3033 c16 -38 35 -69 42 -70 7 -2 24 6 38 17 l25 21 -40 -3
c-37 -3 -40 -1 -43 25 -7 59 33 70 137 38 34 -10 61 -17 61 -15 0 3 -7 16 -16
29 -16 24 -21 25 -124 25 l-108 0 28 -67z"/>
<path d="M6316 2984 c-3 -9 -6 -18 -6 -20 0 -2 24 -4 53 -4 l52 1 -24 19 c-28
24 -67 26 -75 4z"/>
<path d="M5588 2766 c-71 -15 -98 -38 -98 -82 0 -26 8 -41 36 -66 49 -45 64
-77 65 -140 0 -55 4 -53 30 17 10 27 12 28 19 10 12 -29 12 -153 0 -176 -6
-11 -21 -19 -35 -19 -27 0 -31 -9 -40 -95 -3 -33 -13 -107 -21 -165 -30 -209
-43 -241 -114 -281 -100 -57 -41 -147 120 -183 101 -23 295 -37 369 -26 84 12
115 34 119 87 3 38 0 43 -47 83 l-51 42 0 67 c0 64 53 512 66 559 6 21 4 22
-50 22 -53 0 -57 2 -80 38 -26 40 -59 140 -70 212 l-7 45 29 -50 c45 -75 84
-108 121 -103 17 3 31 3 31 1 0 -2 -14 -31 -31 -65 -24 -47 -27 -59 -14 -54
27 10 70 48 101 89 21 28 30 34 32 23 4 -20 5 -20 51 4 21 10 41 29 44 40 6
22 4 23 -48 36 l-30 7 33 10 c40 12 37 26 -14 54 -101 57 -378 89 -516 59z
m82 -171 c0 -2 -9 -9 -20 -15 -16 -9 -20 -8 -20 5 0 8 9 15 20 15 11 0 20 -2
20 -5z m249 -491 c23 -29 36 -63 27 -71 -3 -3 -19 0 -36 7 -26 11 -30 17 -30
51 0 45 11 49 39 13z m-281 -381 c2 -8 -6 -13 -22 -13 -26 0 -40 12 -29 24 11
11 46 2 51 -11z m292 -64 l55 -1 -50 -18 c-66 -24 -66 -24 -106 6 l-34 26 40
-6 c22 -3 65 -6 95 -7z"/>
<path d="M6242 2598 c-34 -34 6 -96 55 -83 l28 7 -22 16 c-11 9 -27 29 -35 45
-11 21 -16 25 -26 15z"/>
<path d="M9577 2542 l-47 -47 42 -97 41 -97 34 29 c19 17 39 30 45 30 16 0
127 108 119 115 -11 12 -73 35 -92 35 -10 0 -22 -7 -27 -15 -6 -12 -14 -4 -32
35 -13 28 -27 53 -30 55 -4 2 -28 -17 -53 -43z"/>
<path d="M7850 1320 c-8 -5 -10 -10 -5 -10 6 0 17 5 25 10 8 5 11 10 5 10 -5
0 -17 -5 -25 -10z"/>
</g>
</svg>
